<mxfile host="Electron" agent="Mozilla/5.0 (X11; Linux x86_64) AppleWebKit/537.36 (KHTML, like Gecko) draw.io/24.7.5 Chrome/126.0.6478.183 Electron/31.3.0 Safari/537.36" version="24.7.5">
  <diagram id="b7l8b_2dy4LbC0Y0vELk" name="vprofile-aws-project">
    <mxGraphModel dx="1364" dy="843" grid="1" gridSize="10" guides="1" tooltips="1" connect="1" arrows="1" fold="1" page="1" pageScale="1" pageWidth="1100" pageHeight="850" background="#1A1A1A" math="0" shadow="1">
      <root>
        <mxCell id="0" />
        <mxCell id="1" parent="0" />
        <mxCell id="MlvmVWSKSJ5KElF2x4cB-68" value="VPC" style="sketch=0;outlineConnect=0;gradientColor=none;html=1;whiteSpace=wrap;fontSize=12;fontStyle=0;shape=mxgraph.aws4.group;grIcon=mxgraph.aws4.group_vpc;strokeColor=#B6BABF;fillColor=none;verticalAlign=top;align=left;spacingLeft=30;fontColor=#B6BABF;dashed=0;strokeWidth=3;" parent="1" vertex="1">
          <mxGeometry x="220" y="35" width="850" height="795" as="geometry" />
        </mxCell>
        <mxCell id="22qIlZ9vfrOEo6Zabjm9-96" value="" style="endArrow=classic;html=1;rounded=1;exitX=0.071;exitY=0.145;exitDx=0;exitDy=0;exitPerimeter=0;curved=0;strokeWidth=2;" parent="1" edge="1">
          <mxGeometry width="50" height="50" relative="1" as="geometry">
            <mxPoint x="460.0099999999999" y="159.28499999999997" as="sourcePoint" />
            <mxPoint x="620" y="230" as="targetPoint" />
            <Array as="points">
              <mxPoint x="459.65999999999997" y="179.01" />
              <mxPoint x="620" y="179" />
            </Array>
          </mxGeometry>
        </mxCell>
        <mxCell id="LkJPUWECZAOm3Dws54fR-89" value="" style="rounded=1;arcSize=10;dashed=1;strokeColor=#ff0000;fillColor=none;gradientColor=none;dashPattern=8 4;strokeWidth=2;" parent="1" vertex="1">
          <mxGeometry x="500.9" y="479" width="470" height="321" as="geometry" />
        </mxCell>
        <mxCell id="58" value="Amazon MQ" style="text;strokeColor=none;align=center;fillColor=none;html=1;verticalAlign=middle;whiteSpace=wrap;rounded=0;fontStyle=1;fontSize=14;" parent="1" vertex="1">
          <mxGeometry x="809.55" y="575" width="120" height="30" as="geometry" />
        </mxCell>
        <mxCell id="22qIlZ9vfrOEo6Zabjm9-78" value="" style="endArrow=classic;html=1;strokeWidth=2;" parent="1" edge="1">
          <mxGeometry width="50" height="50" relative="1" as="geometry">
            <mxPoint x="871" y="600" as="sourcePoint" />
            <mxPoint x="871" y="654" as="targetPoint" />
          </mxGeometry>
        </mxCell>
        <mxCell id="22qIlZ9vfrOEo6Zabjm9-84" value="" style="rounded=1;arcSize=10;dashed=1;strokeColor=#ff0000;fillColor=none;gradientColor=none;dashPattern=8 4;strokeWidth=2;" parent="1" vertex="1">
          <mxGeometry x="508.9" y="658" width="179.1" height="111" as="geometry" />
        </mxCell>
        <mxCell id="22qIlZ9vfrOEo6Zabjm9-79" value="" style="rounded=1;arcSize=10;dashed=1;strokeColor=#ff0000;fillColor=none;gradientColor=none;dashPattern=8 4;strokeWidth=2;" parent="1" vertex="1">
          <mxGeometry x="779.9999999999999" y="658" width="179.1" height="111" as="geometry" />
        </mxCell>
        <mxCell id="MlvmVWSKSJ5KElF2x4cB-67" value="" style="outlineConnect=0;dashed=0;verticalLabelPosition=bottom;verticalAlign=top;align=center;html=1;shape=mxgraph.aws3.virtual_private_cloud;fillColor=#F58534;gradientColor=none;" parent="1" vertex="1">
          <mxGeometry x="220" y="52" width="79.5" height="54" as="geometry" />
        </mxCell>
        <mxCell id="MlvmVWSKSJ5KElF2x4cB-78" value="" style="rounded=1;arcSize=10;dashed=1;strokeColor=#ff0000;fillColor=none;gradientColor=none;dashPattern=8 4;strokeWidth=2;" parent="1" vertex="1">
          <mxGeometry x="710" y="145.13" width="237" height="229.75" as="geometry" />
        </mxCell>
        <mxCell id="MlvmVWSKSJ5KElF2x4cB-69" value="" style="rounded=1;arcSize=10;dashed=1;strokeColor=#ff0000;fillColor=none;gradientColor=none;dashPattern=8 4;strokeWidth=2;" parent="1" vertex="1">
          <mxGeometry x="530" y="110" width="440" height="300" as="geometry" />
        </mxCell>
        <mxCell id="2" value="" style="sketch=0;pointerEvents=1;shadow=0;dashed=0;html=1;strokeColor=none;fillColor=#505050;labelPosition=center;verticalLabelPosition=bottom;verticalAlign=top;outlineConnect=0;align=center;shape=mxgraph.office.users.credentials;" parent="1" vertex="1">
          <mxGeometry x="40" y="57" width="56" height="58" as="geometry" />
        </mxCell>
        <mxCell id="3" value="" style="outlineConnect=0;dashed=0;verticalLabelPosition=bottom;verticalAlign=top;align=center;html=1;shape=mxgraph.aws3.users;fillColor=#505050;gradientColor=none;strokeColor=none;" parent="1" vertex="1">
          <mxGeometry x="40" y="217" width="66" height="63" as="geometry" />
        </mxCell>
        <mxCell id="4" value="" style="sketch=0;pointerEvents=1;shadow=0;dashed=0;html=1;strokeColor=none;fillColor=#505050;labelPosition=center;verticalLabelPosition=bottom;verticalAlign=top;outlineConnect=0;align=center;shape=mxgraph.office.devices.laptop;" parent="1" vertex="1">
          <mxGeometry x="44" y="397" width="58" height="34" as="geometry" />
        </mxCell>
        <mxCell id="5" value="" style="endArrow=classic;html=1;entryX=0;entryY=0.25;entryDx=0;entryDy=0;strokeWidth=2;" parent="1" target="LkJPUWECZAOm3Dws54fR-59" edge="1">
          <mxGeometry width="50" height="50" relative="1" as="geometry">
            <mxPoint x="120" y="87" as="sourcePoint" />
            <mxPoint x="252" y="247" as="targetPoint" />
            <Array as="points">
              <mxPoint x="160" y="87" />
              <mxPoint x="160" y="247" />
            </Array>
          </mxGeometry>
        </mxCell>
        <mxCell id="7" value="" style="endArrow=classic;html=1;entryX=0.004;entryY=0.619;entryDx=0;entryDy=0;entryPerimeter=0;strokeWidth=2;" parent="1" target="LkJPUWECZAOm3Dws54fR-59" edge="1">
          <mxGeometry width="50" height="50" relative="1" as="geometry">
            <mxPoint x="120" y="424" as="sourcePoint" />
            <mxPoint x="270" y="267" as="targetPoint" />
            <Array as="points">
              <mxPoint x="130" y="424" />
              <mxPoint x="150" y="424" />
              <mxPoint x="161" y="424" />
              <mxPoint x="159" y="267" />
              <mxPoint x="204" y="267" />
            </Array>
          </mxGeometry>
        </mxCell>
        <mxCell id="9" value="" style="endArrow=classic;html=1;strokeWidth=2;" parent="1" edge="1">
          <mxGeometry width="50" height="50" relative="1" as="geometry">
            <mxPoint x="120" y="257" as="sourcePoint" />
            <mxPoint x="299" y="257" as="targetPoint" />
          </mxGeometry>
        </mxCell>
        <mxCell id="56" value="Users" style="text;strokeColor=none;align=center;fillColor=none;html=1;verticalAlign=middle;whiteSpace=wrap;rounded=0;fontStyle=1;fontSize=14;" parent="1" vertex="1">
          <mxGeometry x="13" y="280" width="120" height="30" as="geometry" />
        </mxCell>
        <mxCell id="57" value="User" style="text;align=center;html=1;verticalAlign=middle;whiteSpace=wrap;rounded=0;fontStyle=1;fontSize=14;" parent="1" vertex="1">
          <mxGeometry x="7" y="115" width="120" height="30" as="geometry" />
        </mxCell>
        <mxCell id="MlvmVWSKSJ5KElF2x4cB-66" value="&lt;font style=&quot;font-size: 11px;&quot;&gt;URL =&amp;gt; ALB Endpoint&lt;/font&gt;" style="text;strokeColor=none;align=center;fillColor=none;html=1;verticalAlign=middle;whiteSpace=wrap;rounded=0;fontStyle=1;fontSize=13;" parent="1" vertex="1">
          <mxGeometry x="408.9" y="294.68" width="100" height="31" as="geometry" />
        </mxCell>
        <mxCell id="MlvmVWSKSJ5KElF2x4cB-71" value="" style="shape=image;aspect=fixed;image=data:image/png,iVBORw0KGgoAAAANSUhEUgAAAgAAAAIACAYAAAD0eNT6AAAABHNCSVQICAgIfAhkiAAAAAlwSFlzAAALEwAACxMBAJqcGAAAABl0RVh0U29mdHdhcmUAd3d3Lmlua3NjYXBlLm9yZ5vuPBoAACAASURBVHic7d15eBzVne7x91R1t3bZsixbki1jg40XbIzBmH0NZglhCwmBEBISss0ks2XuTObOneeOJ+udZCbrJBcYYAgkkISQAAncACEsYQ278b7bsiVbsmXLsrburjr3D+GMMZat7q7q6lZ/P8/jJ3lw1zk/WVLX26fOIgEAAAAAAAAAAAAAAAAAAAAAAAAAAAAAAAAAAAAAAAAAAAAAAAAAAAAAAAAAAAAAAAAAAAAAAAAAAAAAAAAAAAAAAAAAAAAAAAAAAAAAAAAAAAAAAAAAAAAAAAAAAAAAAAAAAAAAAAAAAAAAAAAAAAAAAAAAAAAAAAAAAAAAAAAAAAAAAAAAAAAAAAAAAAAAAAAAAAAAAAAAAAAAAAAAAAAAAAAAAAAAAAAAAAAAAAAAAAAAAAAAAAAAAAAAAAAAAAAAAAAAAAAAAAAAAAAAAAAAAAAAAAAAAAAAAAAAAAAAAAAAAAAAAAAAAAAAAAAAAAAAAAAAAAAAAAAAAAAAAAAAAAAAAAAAAAAAAAAAAAAAAAAAAAAAAAAAAAAAAAAAAAAAAAAAAAAAAAAAAAAAAAAAAAAAAAAAAKAkmKgLGG1aW1srfLdmjnzvmFTaX5RMpU7zfdvie7bGShVWilnrO5KR9a2R3v4mGGONrIxjUsaYQSOnz8h2G8dpldFayb7h+s5js2Y1boz2KwQAjAYEgBxs3Lix3EmMOcmRTpcxJ/vWHm+k6ZLcA1/n+748zyrt+UN/0p48z8+qT8cxnuM6uxyj1Y5rHvP67Y/mzZvUGsTXAwAoHQSADFhrzeb27gWO/ItldbGkRZLKsmnL962SKU+pVFqplCff2qzrcl2nP+Y6S2OO87Oebv+WhQub+7JuDABQEggAR2CtdVrbd58hq2tkdLWsmsLoJ+35SibTGkim5Wc5OiBJxhgbc50tMcfcO5AY/NcF06btCbBMAMAoQQAYRmtr93Q53k1WukHSpHz2nUqnNTDoKZlMKYeBATnG2FjMWesY95tzZjbeFlyFAIBiRwA4gLXW2dq+5wpZ/3NW5nxF/O/jWw2NCgymlE57ObUVc52BWNx90PXt52fObN4ZUIkAgCJFAJDU1tZWmbblN0r6Gw1N4is4yZSnvv5kzkHAMbKxmPucE/P+bM70KcsCKg8AUGRKOgAsX24T1XW7bzRW/yypOep6RiKV9tTfn1Iylc6pHWOkeMx904l5HyEIAEDpKckAYK11Wtu6bpTMv0iaHHU92UilffX1DSiVzn7CoPT2pMGYeaYiFrtm+vTGjoDKAwAUuJILAK2tO0+xjvMdSadGXUsQBpMp7etLyvo5zBaU5DiOF4859845tunjxpjchhcAAAWvZAJAW9ve8Z6f/pY1uiHqWoJmrVVff1IDg7mtGpCkWNzpjhn74TkzWx4JpjoAQCEqiQCwZVvXdVb2O0ZmQtS1hCnt+drXO5jzREEjKZGIP9HfYy9nUyEAGJ1GdQBYv75rTKxcPzDS9VHXki/WSv0DSfX1J3NuK+a6vRXx2PtnzJj4WAClAQAKyKgNAFu37j7PN/ZHklqiriUKyZSnnt6BnOcGSFJ5efyuOTOaPhZAWQCAAjHqAoC11mxp3/OXxtp/kxSLup4o+b7Vvt4BJVO5PRKQpETc3RQ35mQ2EQKA0WFUBYDOzs6a/kHnThnz/qhrKSR9fUn1DeT+SMBxTX9ZRfkls6c1PB1AWQCACI2aALBlS2ezcd3fWGlB1LUUosHBlHp6k5JyeyRgjLHlifhfzT628fvBVAYAiMKoCACtrV3HW0e/UYk+7x+pVCqtvfsGZXNdKyipIhH/weyZTZ8PoCwAQASKPgC8PdnvIUnVUddSDNKer56efnkBTA6sKIv/YvaxTR8MoCwAQJ4VdQBobe+6xPq6X1JF1LUUE9+36u7pl+flto2wJFWUxZ+efWzTublXBQDIp6INAFu27b5csvdJSkRdSzHyPX8oBAQwEhBPuM/MmznpnADKAgDkiRN1AdnYvG3nBZL9mbj5Z81xHdXWVsgxuWfAVNI7e9mqbY8GUBYAIE+KLgBsadt9tpHzoKTyqGspdq7jaExthYyTewhIprwLV65pvy+AsgAAeVBUAWBT287ZsvYBSZVR1zJauK6jMTUVMgGMBPQPpj6wal3bdwIoCwAQsqIJAO3tPQ2OnF9Lqou6ltEm5jqqqS5XABlA/f3pv1q+pu0zubcEAAhTUQSAjRs3lqds+jeyOibqWkarRNxVRUXuUyqspFTK++HKTdtOz70qAEBYiiIAuImx/yFrF0Vdx2hXWZ5QWSL34xN83zqDff7vli9vHRdAWQCAEBR8ANi8teszkr0p6jpKRXVVuWIxN+d2fM9WWNd9OYCSAAAhKOgAsLl913HG6NtR11FKjJFqqsoCmQ+QTKWPXr6m7ZbcWwIABK1gA8DatbbM+OYesctf3rmuo6qKskDaSia9T61Ys2NxII0BAAJTsAGgvLLrG5KOj7qOUlVeHlcinvujAGutSXup+5cvt2zaBAAFpCADwNatu06zMpw0F7Hq6vJA9gdIp/0axbf/IoCSAAABKbgAsHatLfONuU0FWFupcYxRVWUwH9yTydRlq9a1nxdIYwCAnBXcTbasquufJM2Jug4MKS8L6lGAlEr5bBUMAAWioALApu17psma/xF1HXinqspgVgWk0l79ytVtX8+9JQBArgoqAJi0/aY45KfguK6jsrJ4IG0l097frl27qzaQxgAAWSuYALClressY+zVUdeBQ6usSAQyCuD5Np6yyZ/k3hIAIBcFEwDk68tRl4DhOcaoojywCYGXrtjU2RRIYwCArBREANi8bddiGZ0TdR04vIryhBwn92EA38rYZOquAEoCAGQpgEHd3G3e1vW8kU6Luo6QWUmtklkj42+TNb1G6nn7ryqsnCojO9HKzpTMNEm5n8oTgr6BlPr6BnNuxxhjzRi1nNDSsi2AsgAAGYr8JrO5retMY0flzd+T9JyVfdIY5/cJZ/DVxsbG3pFc+MorNj6+ac9cx/rnGmPOt9J5kqrCLXdkKspi6u8flLW5tWOtNWV97s2SLgukMABARiIfAdiyretXkq6Muo7AGL0l397pJbx7pk2YsD2IJjs6Oqr7k/H3O8b/qJU5XxF/3/b1DmpgMJVzO8Yxntfv1i5c2NwXQFkAgAxEeiNpbe2ebh1vtQpkLkKO/iBjvzqluf7RMDtpbe063jr6n5KuUUT/bp5ntbt7RIMZR1SRiP9g9swmtn0GgDyL9MbrO96noq4hV1ZabeUvnjJp3Nlh3/wlqaVl3NIpk8ZdZx07z8j+Puz+DsV1jeLxYJ4epXzvI4E0BADISGQ33+XLbcLIfCyq/gOQlNU/7dtTd/xRk8b/Lt+dH9VUv6JlUv17jNH1kjrz3X9leTAbA6XT/ph169ouDqQxAMCIRRYAqsd0XS7ZiVH1n6ONcvwzp0we99XjjjPJKAtpaR53j/H9BZKeyWe/sZgbyJJASRrw9KVAGgIAjFhkAcAYfTiqvnP0qJc0J05pGv9y1IXs19IyfltLc917ZMy38tWnMVJZQI8B0mn/RGtt5CtSAKCURBIAOjs7ayRTjMO+93S01102bVrdnqgLOZgxJj2lue5vrTF/LcnPR5+JRDD3bN/33ZXrtn8mkMYAACMSSQAYSLmXS6qIou9sGatbW5rrbli40OS+/i1ERzXXfdfIflpDGw+FKh535QRxQIAk3/c/HUhDAIARiSQA+L65Kop+c/DA5El1f26Mycsn61y1TKq/3Uj/kI++ysoCWg2Q9o8LpCEAwIjkPQBYa2PGsRfku98c/GGwr+5aY4wXdSGZaJk07htW+n7Y/SQCmgdgfeuuXrdj9GwIBQAFLu8BoLV9z+myGpPvfrPUKc+7dsYMk/vm9xGY0lz3BUnPhdlHPO4EtpuU5/s3BdQUAOAIIngEYC/Mf59ZsTL2I1OmNLRFXUi2jDHptDHXS9odYi+Kxd1AWvI8fzSeCQEABSn/AcDXmXnvMwtW5vYpzfWPRV1Hro5urttsjP1imH3EYsEEgLTnj9u40ZYH0hgA4LDyGgBeecXGZXRyPvvMUlfCif1j1EUEZXLTuNut9EJY7cfdYAKAtdb0pXa8P5DGAACHldcAMKG5e76kynz2maX/3dRUk/ftdcNijPGNcf5SIS0NjMeD/DGyTAQEgDzIawCw8k/MZ39Z2m783juiLiJoU5rHviKr34bRtjFGMTeYHyXr+/MDaQgAcFh5DQDGal4++8uKtf/W0tLSH3UZYXBkQ9tz3w3oMYDn20mBNAQAOKx8TwI8Ps/9ZWrASzm3R11EWCZPrn/RSK+H0XbMDWxHwKrly20ikMYAAMPK8yMAOyuf/WXhwULc5z9IvjF3hdGuGwvoEYCVTLz91EAaAwAMK28BYPv27VVGZkK++suGb3V31DWEzXOT90oKfFdD1wnuR8k6phhWigBAUctbABi08an56itLA67t/X3URYTt6IkTd8iYV4Nu1wkwADi+OBcAAEKWtwDgpM1R+eorG9bohdE6+e9gxtrAg44xCuxkQM/3ZwTSEABgWHkLANYU9vC/Y83TUdeQL9bYJ8No13ECOhXAmPpgGgIADCdvAcAY25CvvrJitDTqEvLFT/pvhdGuCSgA+L5fG0hDAIBh5XMVQEF/qvONvzrqGvJl6tSGdkmBr3YI6hGArKqCaQgAMJw8PgJQIX+q85P7xq2Puoj8susCbzKgAODLlgXSEABgWPkbAbCmkN/U982YYQajLiK/zK7AWwyoHUcmgmOqAaC05G8EwBb07m49UReQb8aY4L/mgEYArLUEAAAIWR4nASqer74yZaV9UdeQb9Zqb9BtmoAOG/Tzv0U1AJScPAaAwh3WNVI66hryzVgb/Ncc0AiACexhAgBgOAV7UwYAAOEhAAAAUIIIAAAAlCACAAAAJYgAAABACSIAAABQgggAAACUIAIAAAAliAAAAEAJIgAAAFCCCAAAAJQgAgAAACWIAAAAQAkiAAAAUIIIAAAAlCACAAAAJYgAAABACSIAAABQgggAAACUIAIAAAAliAAAAEAJIgAAAFCCCAAAAJQgAgAAACWIAAAAQAkiAAAAUIIIAAAAlCACAAAAJYgAAABACSIAAABQgggAAACUIAIAAAAliAAAAEAJIgAAAFCCCAAAAJQgAgAAACWIAAAAQAkiAAAAUIIIAAAAlCACAAAAJYgAAABACSIAAABQgggAAACUIAIAAAAliAAAAEAJIgAAAFCCCAAAAJQgAgAAACWIAAAAQAkiAAAAUIIIAAAAlCACAAAAJSgWZuO2bcl4ue4YOXbsjnRnj6eq18LsL1tGqR12x5cviLqOfOrw2720HZv998P6rjG+I1lHNhWXZOLGHePF3OpcazMmmbRtH/+IPGenXNOppsmvG7PEz7VdAMB/M0E1ZPd8vU6D6XNkzHmSFsnqWBmNC6p9FDIr+QOS7ZP8bsnbI/n7AmzfkUxFv5xEm0z5E7LOHablv14KsAMAKDk5BQBrb4mro+MyyfmYjL1EUjygulDs7KCU3jH0x/YH3LiRTGWPYtUPya/6omm5eVvAHQDAqJdVALBrv1em2u5PyJi/lzQ12JIw6qQ7pfQWye8Nvm0TszJjn1NF7CbTcNea4DsAgNEp4wBgd375fPnmB5JmhVAPRi0reR1ScoNkU8E3b2JWsboH1DzjWmOWJIPvAABGlxEHALtrSa3SsZtldF2YBWG0S0mDayRvVzjNO5W9ik+4zDTd+mQ4HQDA6DCiAGA7vrRAcn4uaXrI9aAkWCnVJqU2DP3/oBnXypnw76blR38XfOMAMDocMQDYzq+eJ2sfkFSbh3pQSrwuaXCFpDBW+Bkp1vCImfzjS0NoHACK3mEDgN3x5Ssl8zMZJfJVEEqM3y0NLJPkhdO+M/5ZM+Wes8JpHACK17A7AdrOL58rY+7l5o9QOWOksuMU2qaU/s4z7dYbHgqncQAoXod817U7vzZL1jwoqTzP9aAUuWOlxIzw2k93XGZbP/qN8DoAgOLzrkcAduOSclXFXpB0QgT1oJQlVw9tHBQG41jFmy82zXc8Fk4HAFBc3j0CUBX7prj5IwqJ6ZIJadDJ+kbe7vutXRLq+RcAUCzeEQBs55dOkvRnEdWCkucOhYCweL3Val1/d3gdAEDx+FMAsNYa+c4PJbkR1oNS546T3Prw2rc7P2RbbwxxwgEAFIf/HgHo/MolMloUYS3AkPhRCvCgyneynpFN3hZO4wBQPA58BPCPkVUBHMiplty68Nq3u8+yrZ+dFF4HAFD4HEmy7V86TjJnRF0M8CexpvDatp6R6f16eB0AQOEbGgGIOTdGWwZwEHecZELcg8rvvTy8xgGg8A0FAN9eE3EdwEFMuJMB/d4xtuOmBeF1AACFzbEdX58uY6ZEXQjwLs7YEBu3UjL96RA7AICC5sj450ZdBHBIbpgBQJIdOD/cDgCgcDmy7PqHAmXiIc8DGJwcXuMAUNgcGTsz6iKAYTkVITY+UGHtkpCOIQSAwubIalrURQDDMiEGAOsbbdk8K7wOAKBwOZJCftAK5MCEfXaPZUMgACUpJqk66iKA4YV7NMVAfNzUpXvs0aF2AgB5FIurf3aldhhj/MO+TlJZnmoCshDuI/p+d8H7XGNvDbUTAMgjm5ZW7JW3ott/XdY8EHd164wa03nw65gABQDA6ONaaaE19itJ365fsdf+vbX2HaesEQAAABjdaqy1/7qi297fau2fZlYTAAAAKAVGV+3tsXfvHwkgAAAAUCqsrl7RrU9LBAAAAEqLsf+yqtPWEAAAACgtE70yfYAAAABAqfHt5QQAAABKjdE8AgAAAKWniQAAAEDpqSQAAABQgggAAACUIAIAAAAliAAAAEAJIgAAAFCCYlEXAJSy3d09WrV2o7r37pPjOJowvk6zj52mskQi6tIAjHIEACACW9s6dN9Dj2vpynWy1r7j7xKJuM47faGuuPhsVVZWDNMCAOSGAADk2UuvLdNtP3lAqVT6kH+fTKb06FMv6PVlq/U3n75OTY0Nea4QQClgDkAUrCf5A5K3++0/eyUd+maA0WXZ6vW65e5fDnvzP1DHzi792//9sXp6evNQGYBSwwhA2LwOKblNSrdJ3nbJ65H8Xkn23a91yiVTK8UnSG6zFG+UYpMlQ04bDVKptO74yUPyPX/E1+za3a2fPvCYPnXDVSFWBqAUEQDCkN4mDSyXBtdI/p6RX+cPSBoYCg1aNvTfnHIpPkMqnzX0v4SBovX8K2+qa093xte98MpSXXXpeRo/bmwIVQEoVQSAoFhPGlwu9f9RSm8Prl1/QBp8a+iPWyOVL5QqTpQMk8OKzWtvrsrqOt9avbFstS44+5SAKwJQyggAObPS4Cqp90nJ6wq3K69nqJ++56SKhVLlGZIpC7dPBKZtx86sr23fsSvASgCAAJAbb5fU8xsp1Zrffm1S6nteGnhLqr5YKpuZ3/6Rld6+/qyv7dnXF2AlAEAAyJKV+l4e+jSuVHRl+D3S3vuk8vlS9YWMBhS6Q8z7HPGlNoeLAeAQmFGWKZuU9v5S6n1Mkd78DzTwprT7Nimd/RAzUMj6+gcyWj1RjAYGkyNaHgoEhRGATPj7pO57pfSOqCt5N2+31H2nVPMBKTE16mqAnHiepz+89LpefHWZ1m/cqlQ6LWOMGhvqdeLxs3XhuadoTG111GXmbOmKtXr6+de0Ys0G9Q8MSpLG1FZr/pxjtfjcRWppboy4QoxmBICR8vZK3T8Of6JfLvwBae+9QyGgbEbU1QBZadveqe/f/jO1HzRp0lqr9o6devh3f9DvnnlJH/3ge3XGKSdEVGVu+voHdMtdv9Sby9e86++69+7TMy++pmdfel2Lzz1VH7p8sRyXwVoEj5+qkfB7pe67C/vmv5/1pL33S6mNUVcCZGxbe4e+8q3b33XzP9hgMqn//MkDevzpF/NUWXAGBgf1te/+1yFv/gfyrdWjT76gm+/6JXNAEAoCwJHYpLT3p0ND7EUjLXXfV5iPKoBhpNJpfe+2n6lvYGDE19z7q8e0ftPWEKsK3o9+9rC2to38d/OPry/T40+/FGJFKFUEgMOy0t4HpVR71IVkziaHQoA/8jdTIEpPP/+qdnRmtt+B7/u676HfhVRR8DZvbdeLr76V8XUP/vbpP80RAIJCADicgVel5Oqoq8iev0fqeUA5rT8D8uS5Py7N6rpV6zZpZ1cGW25H6PlX3spqOL+3r/+IjwyATBEAhpPulHqK55PFsJLrpIHs3liBfEml09rU2pb19es25nkzriyt27Al62vXbiiOrxHFgwAwnN5HNWqO6O19/O0TCIHCtLenN6eJbt3dPQFWE57u7n1ZX7tnb3F8jSgeBIBDGVwuJTdFXUVw/IG3dy0EClM67eV0fcrL7fp8SfvZ15nrvxFwMALAu/hS79NRFxG8wbeKbCUDACBMBICDDawsjvX+mbKe1Pds1FUAAAoEAeBg/c9HXUF4BpdJNvsT6QAAowcB4EDpHaN78xzrDR0hDAAoeZwFcKCBN6OuIHwDb0oVi6KuAkCR8T1fqzds1qYtberpDWckMea6qq2pVGNDvaa0NKm2uiqUfrLV1z+gjVvatL1jp/b29CmVDmelWDwWU31drebOPkbjxo4JpQ+JAPBOyZVRVxC+9A7J65bc8H6oELyt7Tv08yx2vKuqLFNZIqHGhnpNapqgurG1IVQ3vH29fVq2ar26dndrX9/wu1L2HebvRmLZqvXq6x9+p7xEPKaxY6o18+ij1NTYkFNfB0ul0lqxZoO2d+5ST0+f/MMsZxzIYTe/9h07D/szsP/mOWVSk6ZPmyzHCWaA11qrZ158TQ888pR253G5pTFGk5omaNGCOTpj0Qmqr4vmPWvvvl698PJSvfjqMm3e2i7fz9+x1MYYLZg3Ux+6YrEmNtQH377t+ArbxElSeqe0++aoq8iPmvdJ5UVyilqqNdSDjXZX3PBQe/n1l4fWwQH+/O//T0b73IdhYkO9Tpg3U2cumq+W5omh9bN7z1794tdP6IVX38rrG+ZITJ3SrGuvWKxZM6bl1E4yldLDjz+nR598QQODhbVNb93YWl158Tk6+7QTZYzJuh3P8/Sfdz+gF1+L9tGh4zo67aTjdeUl56ihvi4vffb29evB3z6tp557VclUKi99DqeyvFyf+8QHddysYwJt113yd+cvCbTFYjW4YmjXvFLgxKWy2VFXMTL+3qEtjUMyEJ+/el/s+JmhdXCAhx9/NrQhw5Hq7evX+o2tevLZV7RuQ6smNIzTuIA/Wa3b2Kp//f6PtG5Ta0GeYrenu0fPv7xUsbirY48+Kqs2dnf36N/+4y699NoypQtwD4KBgUG9sWyN2rZ3asHcmXKzPE74rp8/omf/+EbA1WXOWqvWbdv19POvyXUdHTOtJadgcyQvvbZM3775Hq1Ys1FeAQTYVDqtV99cpRPmztCYmurA2mUS4H7pIjzwJ1ujeaIjRmzZ6vX66nfu0O33PBjYyMT2jl361i33aO++wt550rdW9z30hJ56/pWMr02mUvruLfdo09bCf894+Y0VuvOnv87q2lVrN2X17xOmZCqlnz/0O/37D+9Wb1/w8xB839fd9z2i/3vnLwruZ3gwmdSdP/1NoKGaALBfujPqCvLH2z20IgAlz1qrP7z4upZ841a1tm3Pub27fv6w+kJ4Yw7LPb98VLv37M3omocff64obv77Pffym1kdJPTIE8+FUE0wlq/eoK9+546Mv3eH43me/uOOn+uJP/wxsDaDtn7TVq1atymw9ggA+3mZHUNa1KzHroB4h46dXfr6d+7UqrWbsm5j/aatWrFmQ3BF5UEymdLjz4z8DT+VSuuxp14IsaJw/PqxP2T0+sFksuC/l23bO/XNgEYCfGt1648f0GtLVwVQWbhefyu4E2oJAJKklGQLaxJP6PzsDyXB6NQ3MKBv3fyTrE/We2NZcR5X+3oGb/or125Ufw4z+aOyYdNW7e0Z+e/8rq7uojh7oG17p35wx32HXXkxEv/viWf10qvFsUfK9o7gPqwSACTJL75f6NyV4teMI0mmUvrebT/TniyWe7VtL87HaDs6d8n3RjbRq71jZ8jVhMO3NqMbRxjP18OyYs0GPfK77Lc537y1Xfc/XDyHpQ0mk4G1RQCQSu/TvyTZ4H6IMLrs7dmnW+/+VcaTjQYjXiqVLd9aJdMjqz2ZLM6vUZIGBkf+O1+AizcO66FHn1Hnrswfa1prddfPHx5xACwEY2trAmuLAFCqiu03HHm1Ys0GPf9yZjtjjqkNbnlSPpUlEiovKxvRawttZ7pMjB0T3I2j0CSTKf3qkacyvm7p8rVav2lr8AWFaOb07JauHgoBQFJJ/jOY8qgrQIH7xW9+n9G+Bcce3RJiNeHJ5A111oyp4RUSosqKck0KeAfEQvPia29pZ1dme4b89snimtBZXpbQyfPnBNZeCd75DsFURF1B/jkl+DUjI7v37NULLy8d8etPnDdb5WWJECsKx+knzxvxayc21GvalEkhVhOOU0+aJ9d1oy4jVL7n69mXRr5p0c7de7Q6wCV1+XDp4jNVUxPcKBQBQJKcMsmM7l+Od2EEACPwzIuvj/i1NdWVunTxmSFWE7ypU5q16MSRBwBJ+tCVi+WEuAtd0CorynX5RWdHXUZevPzGihG/dunytTmvHsinBfNm6tLFZwXaJgFAkmQkJ/iDFgqXkZzR+zwQwVm/aau69nSP+PWXXnCmTpibl52Vc1ZbU63P33RNxjfzWdOn6urLzg+pqmC5rqvPfuzqUf38/0Bt2ztHvIJl9brNIVcTDMcYXXjuqfqLT3wo8ODJaYD7xRslryPqKvLDrZMcRgBwZNZarVi9QWeesmBEr3ccR39x0zW655eP6vfPvlyQZwFIQ5/8P3/TNRpfNzar6y+94CxV3L839wAAFeBJREFUVVbonvsfjfygmOGMHVOjz37sas2aPjXqUvLGWqvNre0jCjzbthfu+73jOBo3tlbzZk/X+WedHNrBXQSA/WKNkkb+vLOoxZujrgBFZOOW9hEHAGnoU+cNH3yvzjr1BP3umZf11sq16t4b/cZTiXhcM46ZojMXzdcpJ83L+dPUuacv1Pw5x+rxp1/Sa2+t0o7OrsgDj+u6ammeqEUL5uj8sxZFNifjhg++V6edlNmjlVTa07LV63XP/b/NaR+C9o6dmq9jj/i6zp3ZHzJmjNEHL79Apy88Xol48LfR8vKywI5zPhwCwH6xxqgryB+XAFBsTjx+lj754SsyusbzfG3e2q6fPviYtrZl/2mnfUd2m99MbWnWJ68fqjmZTCl9mBUFHV17tOQbt2TVjyRdcfG5uujcU4b9e+M4qigf2VK/TNSNrdU1VyzWNVcslud5GjzCWvt/+OoPMtqR70DHzTpGn7vxA4d9TUVFeain5I1UWSKuysrMJxqfcfJ8ua6jm++8P+u+9+7rO+JrfN/PaeRm7qxj9N73nJH19YWCALBfvHloMmAp7AqYmBJ1BciQ67hZvaHOnT1df9s0QV/8yvez3sSmJ4BT0RKJuBKJ+LB/X9Gb285z8Xh2/z5Bct0j1+A42d+cYyNofzQ4fs6MnK4/UgiThh4V5DJaU1VZmfW1hYRJgH8SkxKzoi4ifO640hrtgOrG1mrKpOy/58W49z2KV3k8t8cWvn/kG7vruorHsv/8+9rSlUW3gdChMAJwoLI50kBmu58VnbK5UVeACJTnMPw9kjdUoNiMHVOT1fbB0tCZGV/9zh1qnFCvRHz4ka1DqawoV0VF2dt7SjRp5vSpke0wSQA4UHzq0KZAtngOwshYOQEAAJobG7IOANLQPIIgDsByjNHsY6fpnNNP1ML5c/Iy+W8/AsCBjCtVLJL6no66knDEjx56BAAAJW7G0S16c3n0R1j71mr56g1avnqDGifU67qrLtL84468iiEIzAE4WOWi0btGvvqcqCsAgIIwd/b0qEt4l+0du/TtW+7RrXf/KqPTG7NFADiYKZPKh19OVLQSM6RY8e1hDgBhmDq5SU0FekDS8y+/qa98+zbt3rM31H4IAIdSebLkFOfRpofmSFV8+geAA11w1slRlzCsrW0d+up37gg1BBAADsWUSzWXS4p+Q41AVJ7G0j8AOMjZp56ourG1UZcxrJ1de/Stm38S2uMAAsBwEkdL5fOjriJ3sYlSZWmcBAYAmYjHY/rw+y+OuozDam3bobt//nAobRMADqd6seRkd1hIYYhJtVeU3lHHADBCJ58wR6efXNgf9p57+c1QViwQAA7HlEljri3SVQFm6ObvToi6EAAoaB+95r2hnbgXlJ8++Lj8gA+bIgAcSWy8NObDkslst6fIVS+WymZHXQUAFLzysjJ94c8+ognjC3eflPbtnXr1zZWBtkkAGIlYs1R7ZfEMpVeeObShEQBgROrG1Oif/uYTmtpSuKelPvX8q4G2RwAYqcTMtx8HBH+kaHCMVHW2VHVu1IUAQNGpranW//rrT+i8M04uiGOVD7ZyzUbt6z3ycccjRQDIRHyaNPbGwpwYaBLSmA8w4x8AchCPx/SxD12qf/iLG3XU5Kaoy3kH3/e1at2mwNojAGTKbZDqPi4lCmgbyViDNPZjQ6MUAICczZx+lJb83af1N5/5sBbMmynXLYxHwJu2tAfWFocBZcOpGnocMLhS6nkkutMDjSNVnDo07M+3EgACZYzR/OOO1fzjjlXfwIBWr92sDZu3qX3HTu3d16tkMpVRe2nPU/uOnfI8L+uadnTuyvrag3HXyEXZbCk+RdrzI8nrynPnRhp709BGP0CRc5zcnrcmk+mAKglXLs+VB/NwOEwhGEjl9nXm+rM0nMryci2YN1ML5uU20rp5a7u+9O+3ZR0C9vUG94GTRwC5cqok60fQsR3qGxgFyhOJnK5funJt4Gukw5DL17mptV17e/YFWE1hWprjhjdlZbn9LIXtqMlNqhtTk/X1qXRwYZcRgFzZlOR3R9O31znKDi1CqaqsLJfjOvK97ML0pi1tuvVHv9SlF56p+sPs7R6Lx5SIR7enR01Npdo7srt2YHBQ37r5Hl131UWa1NQgZ5jRBOM4qiiPdrXSYDKlvr7MPqkmU2ktX7VeP/nVozn1Paa6MqfrJSmVSiuVymx4fyQ83+rlN5ZrZ9eerNvINSwfiACQK2+XpIg+eaR3Dq1MAIqc67qaUF+n7R3ZP9988bW39OJrbx3xdeVlZZo+dbJOWzhPp518vBwnfwOhjRPGa836LVlfv6m1TV//3n8d8XXxeEyTGifo5AWzdf6Zi/IeCO6+7xHdfd8jee1zv8aJ4zO+xlqr15au0nMvv6lV6zZnHF7yqbY2uA99BIBceZ3R9Z3eGV3fQMCmtkzKKQCM1MDgoJatXq9lq9frt0++oM994ho1TqgPvV9JmjalSc+8EH4/qVRam1rbtKm1Tb/9/Qv65Eeu0vw5M8LvOGLGmIw38tnT3aMf3nlfTsEsnxonBLdbIXMAchXlTdgjAGD0mDNzat77bG3boS9/6za1b89PkJ9z7NF56edAPfv69N1b79UfX1+W977zbVJTg8Zk8Al5T3ePvvyt24rm5i9J06e1BNYWASBXkQaACEcfgICdOG+WYrH8r7Xu7evX927/mdLp7JdmjdTEhvpINpfxfV+3/fjBQJeQFaJFC44b8Wuttfrhnb/Qrt0RzeHKQnlZQtOnEgAKR5Sfwv2+6PYgAAJWXVWpk46P5gCr9h079dTzr+Slr7NOPSEv/RwsmUrplw8/GUnf+eC4jk5fNPJjfV9/a7XWrN8cYkXBO+n42UokgpvESgDISVryd0dcAqMAGD3ed+GZke3B/twfl+aln3NOO0ljc1gGlotX3lypvv6BSPoO22kLj9f4upFv0/7cy2+GWE04zj/r5EDbIwDkwuuKaA+AAzAREKNIS3OjTj1pXiR9b2pty3hnt2zE4zFdcfE5ofdzKJ7nacOWbZH0HaZEIq4rM/w3XVtEz/0l6bhZx+iYqZMDbZMAkItCuPkyEbB45PDBNtdPxblcne8P5NdeeaFqAljLnSlrrbrztNHOOaefFOhkrkx0d/dE0m+Yrrz4HDXU14349b7nqyfAU/XCFou5+sj7Lw68XQJALgrh5lsINWBEqiorsr421xtiZS59V+X3Zjymtlqf/MhVkTwKyNcuco4x+uyNV+f0M5Gt8rJCPtI8c8fNOkYXv+eMjK5xXEfxePGsgn//peerqbEh8HYJALkohOfvrAQoGhNzWGs+oWHkn24OpSmHtcO51J2t+XNm6NorL8xrn9VVlXkNO+PrxuovP3lt3m9E+drzIB8mNU3Q5278wLC7Ih7OxPHBracP06IFc3XJ+aeH0jYBIBfpAlhS4/VIdnRO6hltFsw9NqvrjDFaMDe3A0hOmDcr62sXzMuu7lxddN5puvp95+dtJOCEuTPzPuowc/pR+stPXquyALd3PZwJ48dpUtOEvPQVtpbmifoff35D1qNbC3L4nciXubOn61M3XBnazyUBIFvWj+AEwGEUSh04rLNOWaC6w+xTP5xTFszVhBw/rUyd3KTjZh2T8XUN9XVaOH/ka6uDdtmFZ+uT118R6NKnQ3FcR+99Tzifso5k3uzp+uJffEzjxo4Jva/3LT4z9D7yYd7s6fqff/XxnA7Vec9ZJ6u8gA8OOmPRCfrrT12neCy8ESICQLb83ZIK5AjSQngUgSNKJOK68Zr3ZTRcOXZMjT50VTBD4R/94KUZPXN2XVefvP7KSDbnOdAZi07Q//7CpzRtyqTQ+rjiorPVHMIz1pE6+qhJ+tIXP6NTTwxvBcTc2dN15inR7EEQlLJEQtdeeaG+8NnrVVlRnlNbY2qrdd1VFwVUWXAqysv08esu06c+Ev7vnrvk785fEmoPo1W6VRpcEXUVQ9x6KZH/LUbzwt8r+dmfnHUkA/H5q/fFjs9tfD0DjRPqVVdXq7dWrpPvH/4QqbqxtfrCZ69XY0Mwz2yrqyo085ij9MayNRo8wnK3RCKuz3z0Kh1fIPvH19ZU6ezTTlR93Rhtbe8IdC37Reeepqvf957I9h/YL5GIa+EJczRz+lHq3LU70B3qZs+Yps9/4poRj6Ts2t2tP7z0emD95yoWc3XmKQv0+Zs+qHmzZwT2vZra0qx43NWqNZuiOtLtT1zX1VmnLtDnb/qQZk2fmpc+je34StRfd3Hqe1bqfSrqKoaUzZBqPxR1FeFItUqpjaE1v7vihofay6+/PLQOhrFxyzbd+6vHDrkTmeM6OuuUBbr60vNUWxP8cc9de7p130NP6KVX35Jv3/3rf9ysY3TdlRdpcnNhPiv2PV9LV67V8y+/pWWr12d9clvjhHp98LILdNL8aHYfPJINm7fpuT++qTeWrc46DFRVVuh9i8/UReeeJscd+YDvmvVb9LXv3pFVn0FxjNGUyU1atGCOTlt4fFaPz0Zq5dqN+umvHtPmre2h9TGcluaJOnnBHJ15ygl5eQx0IAJAtnoekAYK5HANt04a97moqwjHKA0A+23v2KWVazdo9559cl2jiQ31mjvrGFXnYTb63p59emvlOnXu2iNrpbqx1Tpu5jEZraeOmu/72ra9Q9u2d6qrq1t9/YOHDDX7uY6jmupKTZ/WomlTmiP/1D9Snbt2q3XbDnXu7FJv/6DS3uHPLaipqtDk5omaNWNqVs+Qcw0A8+fM0KTmiRlfV5aIqbqqUk0Tx+uoyU15Xya5tW2HVq3bpO69vfL8cDZ5i7muqqsq1Dhh6FyITA4vCryWyHoudoX03N3bI9mUZMKdKIXgNU6oj2xZVm1Ntc5YVNzPhB3HUUtzo1qaG6MuJVQN9XVFFcyGPtEuiLqMjE1unqjJWQSXYsUkwKxYyYv4DIB3sKwEAABkhACQDb9fssmoq3inECfKAQBGHwJANuxg1BW8mx/+ISYAgNGDAJANk//9u4/IKcCaAAAFiwCQDadccsNbkpKVWGEu2QIAFCYCQLYS0W2P+i7xoyQn+y0xAQClhwCQrYqFkimQfaQrT4u6AgBAkSEAZMsdI1VdEHUVUvl8KTE96ioAAEWGAJCLihOlqvOj6z8xU6q5JLr+AQBFi50Ac1V5uhSbKO17NH+b8TjlUtV5UvmJkopjK1MAQGEhAAQhcYw07rNSarOUXD+0Na8f8F4BTlxyaqX4FCkxg21/AQA5IQAExpHi04b+AABQ4JgDAABACSIAAABQgggAAIB3MDnOLTa5NoC8IAAAAN6huroyx+urAqoEYSIAAADeoX7sGCUS2a80ap44PsBqEBYCAADgHRKJuObNzm6H0ZbmRjXU1wVcEcLAMkCUtF5b2dQR8JYNwGhwxjln6bWlq2Stzei6cy84W/xOFQcCAEpayo/X9Gb4BgeUgrrmJp1xzhl69qlnR3zN3PlzNW32LPV6/E4VAx4BAAAO6fyLztei0xeN6LVz5s7WFR+4nBUARYQRAADAIRljdMnll+jo6cfoiUefUOeOjne9ZuzYsTrngnM0/6T53PyLDAEAAHBYM+ccq5lzjtWO7TvUvq1dvT29qqis0MSmiWqe3MyNv0gRAAAAIzKxcaImNk6MugwEhDkAAACUIAIAAAAliAAAAEAJIgAAAFCCCAAAAJQgAgAAACXGaCgA+FEXAgwv5C1FjcOepQBKjmtsypHUF3UhwPDCzadJU50KtQMAKEAxx+l0JPVEXQgwLJsOtfmkHce5ZQBKTtzY3ziS3r25M1AwwvyAbrTPmdQfYgcAUHAcI9/IWeJIZm3UxQDD8kO8P5u4N6i6ZHgdAEDhqTT6ydkNpj0m2VVRFwMMK9QAUNYdXuMAUHjKXW09p8G5UZJikn1haEEAUGD8fZK8EDsoWxZi4wBQUCpcs7WizMw3xviS5Mgk/qBwH7QC2fH2hNt+rOz+cDsAgOg5kq2OmV+f32COOn2M6frTfzcNX+yR7PNRFgccktd15Ndky7hWvdV3htcBAEQr4WhflWsera9yZp3b4Fy+/5P/fjFJknF+LGvPiaRC4FBsUvJDfETvjFltZnx/7xNt3/tkbYWZGl5HAJBnVrvPqtOyg2/4BxsKAK57n9Lp70qqzEdtwBF5OxTqLoCxyv+QpPc0m82SNofXEQAUJkeSzLh/6JZ0W8S1AEOsL6Xawmvfqew1TXf8ILwOAKDw/fdhQG76m7JiTTSi5+2QbIgb9MXGfDu8xgGgOPwpAJj6JVvl6HtRFgNInpQKcUTeqe5W07R/Dq8DACgO7zwOOJX+ZxmehyJCyc1DEwBDYSSn7lPGLOEETAAl7x0BwDQv6ZPM5xT6GazAIXg9khfms//6Z8zk2+8LrwMAKB7Owf/BNPyvh2X071EUgxJm01Jy5dAEwDA41XvUcuzicBoHgOLzrgAgSRrf8I+SHs9vKShdVkqukuxAOM07ibSc+vOMWcIkVwB42yEDgDGfSSmdvnLonAAgTFZKrg1v1z+T8GUarzCT//ONcDoAgOJ06BEAvT0fIOleJmNeymdBKCVWSq6T0tvDad4kfLkTrzUttz0STgcAULyOeAyg3f7NKjmD90m6JA/1oGR40uAqydsVTvOmPCnTsNhMuf2ZcDoAgOI2onOArbVGnV/7e8l+VZIbck0Y7fx+KblC8nvDad8d2yY3drppvoclrQAwjBEFgP1sx1fOlnSLpFnhlIPRzUrpdim5UZIXQvsxK3f8f5mWu24KoXEAGFUyCgCSZO2ShDpjX5D0RUljgy8Jo5K3R0ptkPx9ITRuJHfsCqniStNy59oQOgCAUSfjALCf3bWkVl78c5I+L9nmAGvCaOJ1SanWcI72NY6VU7dM8apPm8bbXgy+AwAYvbIOAPtZ+3NXHavfI2Ouk8yFhIFSZyV/r5TukryO4A/1Ma6Vqdoht+p+mbIlpvnWncF2AAClIecAcDC782uz5NmFMv4sScfImPHyVStjmDw46qQd+SlXGozL7yuX7a2Q31Ml3wvme23cARlnUIpvlXFXyY09ocaj7mVDHwAAAAAAAAAAAAAAAAAAAAAAAAAAAAAAAAAAAAAAAAAAAAAAAAAAAAAAAAAAAAAAAAAAAAAAAAAAAAAAAAAAAAAAAAAAAAAAAAAAAAAAAAAAAAAAAAAAAAAAAAAAAAAAAAAAAAAAAAAAAAAAAAAAAAAAAAAAAAAAAAAAAAAAAAAAAAAAAAAAAAAAAAAAAAAAAAAAAAAAAAAAAAAAAAAAAAAAAAAAAAAAAAAAAAAAAAAAAAAAAAAAAAAAAAAAAAAAAAAAAAAAAAAAAAAAAAAAAAAAAAAAAAAAAAAAAAAAAAAAAAAAAAAAAAAAAAAAAAAAAAAAAAAAAAAAAAAAAAAAAAAAAAAAAAAAAAAAAAAAAAAAAAAAAAAAAAAAAAAAAAAAAAAAAAAAAAAAAAAAAAAAAAAAAAAAAAAAsvP/AWohHxVNUhMrAAAAAElFTkSuQmCC;" parent="1" vertex="1">
          <mxGeometry x="200" y="220" width="60" height="60" as="geometry" />
        </mxCell>
        <mxCell id="MlvmVWSKSJ5KElF2x4cB-75" value="" style="outlineConnect=0;dashed=0;verticalLabelPosition=bottom;verticalAlign=top;align=center;html=1;shape=mxgraph.aws3.application_load_balancer;fillColor=#F58534;gradientColor=none;" parent="1" vertex="1">
          <mxGeometry x="595" y="235.01" width="49.45" height="49.99" as="geometry" />
        </mxCell>
        <mxCell id="MlvmVWSKSJ5KElF2x4cB-77" value="Amazon CloudFront" style="text;strokeColor=none;align=center;fillColor=none;html=1;verticalAlign=middle;whiteSpace=wrap;rounded=0;fontStyle=1;fontSize=14;" parent="1" vertex="1">
          <mxGeometry x="363.9" y="195" width="190" height="30" as="geometry" />
        </mxCell>
        <mxCell id="MlvmVWSKSJ5KElF2x4cB-80" value="Auto Scaling group" style="points=[[0,0],[0.25,0],[0.5,0],[0.75,0],[1,0],[1,0.25],[1,0.5],[1,0.75],[1,1],[0.75,1],[0.5,1],[0.25,1],[0,1],[0,0.75],[0,0.5],[0,0.25]];outlineConnect=0;gradientColor=none;html=1;whiteSpace=wrap;fontSize=12;fontStyle=0;container=1;pointerEvents=0;collapsible=0;recursiveResize=0;shape=mxgraph.aws4.groupCenter;grIcon=mxgraph.aws4.group_auto_scaling_group;grStroke=1;strokeColor=#D86613;fillColor=none;verticalAlign=top;align=center;fontColor=#D86613;dashed=1;spacingTop=25;" parent="1" vertex="1">
          <mxGeometry x="727" y="180" width="180" height="160" as="geometry" />
        </mxCell>
        <mxCell id="MlvmVWSKSJ5KElF2x4cB-84" value="" style="shape=image;aspect=fixed;image=data:image/svg+xml,PD94bWwgdmVyc2lvbj0iMS4wIiBlbmNvZGluZz0iVVRGLTgiPz4KPHN2ZyB3aWR0aD0iODBweCIgaGVpZ2h0PSI4MHB4IiB2aWV3Qm94PSIwIDAgODAgODAiIHZlcnNpb249IjEuMSIgeG1sbnM9Imh0dHA6Ly93d3cudzMub3JnLzIwMDAvc3ZnIiB4bWxuczp4bGluaz0iaHR0cDovL3d3dy53My5vcmcvMTk5OS94bGluayI+CiAgICA8IS0tIEdlbmVyYXRvcjogU2tldGNoIDY0ICg5MzUzNykgLSBodHRwczovL3NrZXRjaC5jb20gLS0+CiAgICA8dGl0bGU+SWNvbi1BcmNoaXRlY3R1cmUvNjQvQXJjaF9BbWF6b24tRUMyXzY0PC90aXRsZT4KICAgIDxkZXNjPkNyZWF0ZWQgd2l0aCBTa2V0Y2guPC9kZXNjPgogICAgPGRlZnM+CiAgICAgICAgPGxpbmVhckdyYWRpZW50IHgxPSIwJSIgeTE9IjEwMCUiIHgyPSIxMDAlIiB5Mj0iMCUiIGlkPSJsaW5lYXJHcmFkaWVudC0xIj4KICAgICAgICAgICAgPHN0b3Agc3RvcC1jb2xvcj0iI0M4NTExQiIgb2Zmc2V0PSIwJSI+PC9zdG9wPgogICAgICAgICAgICA8c3RvcCBzdG9wLWNvbG9yPSIjRkY5OTAwIiBvZmZzZXQ9IjEwMCUiPjwvc3RvcD4KICAgICAgICA8L2xpbmVhckdyYWRpZW50PgogICAgPC9kZWZzPgogICAgPGcgaWQ9Ikljb24tQXJjaGl0ZWN0dXJlLzY0L0FyY2hfQW1hem9uLUVDMl82NCIgc3Ryb2tlPSJub25lIiBzdHJva2Utd2lkdGg9IjEiIGZpbGw9Im5vbmUiIGZpbGwtcnVsZT0iZXZlbm9kZCI+CiAgICAgICAgPGcgaWQ9Ikljb24tQXJjaGl0ZWN0dXJlLUJHLzY0L0NvbXB1dGUiIGZpbGw9InVybCgjbGluZWFyR3JhZGllbnQtMSkiPgogICAgICAgICAgICA8cmVjdCBpZD0iUmVjdGFuZ2xlIiB4PSIwIiB5PSIwIiB3aWR0aD0iODAiIGhlaWdodD0iODAiPjwvcmVjdD4KICAgICAgICA8L2c+CiAgICAgICAgPHBhdGggZD0iTTI3LDUzIEw1Miw1MyBMNTIsMjggTDI3LDI4IEwyNyw1MyBaIE01NCwyOCBMNTgsMjggTDU4LDMwIEw1NCwzMCBMNTQsMzQgTDU4LDM0IEw1OCwzNiBMNTQsMzYgTDU0LDM5IEw1OCwzOSBMNTgsNDEgTDU0LDQxIEw1NCw0NSBMNTgsNDUgTDU4LDQ3IEw1NCw0NyBMNTQsNTEgTDU4LDUxIEw1OCw1MyBMNTQsNTMgTDU0LDUzLjEzNiBDNTQsNTQuMTY0IDUzLjE2NCw1NSA1Mi4xMzYsNTUgTDUyLDU1IEw1Miw1OSBMNTAsNTkgTDUwLDU1IEw0Niw1NSBMNDYsNTkgTDQ0LDU5IEw0NCw1NSBMNDEsNTUgTDQxLDU5IEwzOSw1OSBMMzksNTUgTDM1LDU1IEwzNSw1OSBMMzMsNTkgTDMzLDU1IEwyOSw1NSBMMjksNTkgTDI3LDU5IEwyNyw1NSBMMjYuODY0LDU1IEMyNS44MzYsNTUgMjUsNTQuMTY0IDI1LDUzLjEzNiBMMjUsNTMgTDIyLDUzIEwyMiw1MSBMMjUsNTEgTDI1LDQ3IEwyMiw0NyBMMjIsNDUgTDI1LDQ1IEwyNSw0MSBMMjIsNDEgTDIyLDM5IEwyNSwzOSBMMjUsMzYgTDIyLDM2IEwyMiwzNCBMMjUsMzQgTDI1LDMwIEwyMiwzMCBMMjIsMjggTDI1LDI4IEwyNSwyNy44NjQgQzI1LDI2LjgzNiAyNS44MzYsMjYgMjYuODY0LDI2IEwyNywyNiBMMjcsMjIgTDI5LDIyIEwyOSwyNiBMMzMsMjYgTDMzLDIyIEwzNSwyMiBMMzUsMjYgTDM5LDI2IEwzOSwyMiBMNDEsMjIgTDQxLDI2IEw0NCwyNiBMNDQsMjIgTDQ2LDIyIEw0NiwyNiBMNTAsMjYgTDUwLDIyIEw1MiwyMiBMNTIsMjYgTDUyLjEzNiwyNiBDNTMuMTY0LDI2IDU0LDI2LjgzNiA1NCwyNy44NjQgTDU0LDI4IFogTTQxLDY1Ljg3NiBDNDEsNjUuOTQ0IDQwLjk0NCw2NiA0MC44NzYsNjYgTDE0LjEyNCw2NiBDMTQuMDU2LDY2IDE0LDY1Ljk0NCAxNCw2NS44NzYgTDE0LDM5LjEyNCBDMTQsMzkuMDU2IDE0LjA1NiwzOSAxNC4xMjQsMzkgTDIwLDM5IEwyMCwzNyBMMTQuMTI0LDM3IEMxMi45NTMsMzcgMTIsMzcuOTUzIDEyLDM5LjEyNCBMMTIsNjUuODc2IEMxMiw2Ny4wNDcgMTIuOTUzLDY4IDE0LjEyNCw2OCBMNDAuODc2LDY4IEM0Mi4wNDcsNjggNDMsNjcuMDQ3IDQzLDY1Ljg3NiBMNDMsNjEgTDQxLDYxIEw0MSw2NS44NzYgWiBNNjgsMTQuMTI0IEw2OCw0MC44NzYgQzY4LDQyLjA0NyA2Ny4wNDcsNDMgNjUuODc2LDQzIEw2MCw0MyBMNjAsNDEgTDY1Ljg3Niw0MSBDNjUuOTQ0LDQxIDY2LDQwLjk0NCA2Niw0MC44NzYgTDY2LDE0LjEyNCBDNjYsMTQuMDU2IDY1Ljk0NCwxNCA2NS44NzYsMTQgTDM5LjEyNCwxNCBDMzkuMDU2LDE0IDM5LDE0LjA1NiAzOSwxNC4xMjQgTDM5LDIwIEwzNywyMCBMMzcsMTQuMTI0IEMzNywxMi45NTMgMzcuOTUzLDEyIDM5LjEyNCwxMiBMNjUuODc2LDEyIEM2Ny4wNDcsMTIgNjgsMTIuOTUzIDY4LDE0LjEyNCBMNjgsMTQuMTI0IFoiIGlkPSJBbWF6b24tRUMyX0ljb25fNjRfU3F1aWQiIGZpbGw9IiNGRkZGRkYiPjwvcGF0aD4KICAgIDwvZz4KPC9zdmc+;" parent="MlvmVWSKSJ5KElF2x4cB-80" vertex="1">
          <mxGeometry x="20" y="50" width="40" height="40" as="geometry" />
        </mxCell>
        <mxCell id="MlvmVWSKSJ5KElF2x4cB-83" value="" style="shape=image;aspect=fixed;image=data:image/svg+xml,PD94bWwgdmVyc2lvbj0iMS4wIiBlbmNvZGluZz0iVVRGLTgiPz4KPHN2ZyB3aWR0aD0iODBweCIgaGVpZ2h0PSI4MHB4IiB2aWV3Qm94PSIwIDAgODAgODAiIHZlcnNpb249IjEuMSIgeG1sbnM9Imh0dHA6Ly93d3cudzMub3JnLzIwMDAvc3ZnIiB4bWxuczp4bGluaz0iaHR0cDovL3d3dy53My5vcmcvMTk5OS94bGluayI+CiAgICA8IS0tIEdlbmVyYXRvcjogU2tldGNoIDY0ICg5MzUzNykgLSBodHRwczovL3NrZXRjaC5jb20gLS0+CiAgICA8dGl0bGU+SWNvbi1BcmNoaXRlY3R1cmUvNjQvQXJjaF9BbWF6b24tRUMyXzY0PC90aXRsZT4KICAgIDxkZXNjPkNyZWF0ZWQgd2l0aCBTa2V0Y2guPC9kZXNjPgogICAgPGRlZnM+CiAgICAgICAgPGxpbmVhckdyYWRpZW50IHgxPSIwJSIgeTE9IjEwMCUiIHgyPSIxMDAlIiB5Mj0iMCUiIGlkPSJsaW5lYXJHcmFkaWVudC0xIj4KICAgICAgICAgICAgPHN0b3Agc3RvcC1jb2xvcj0iI0M4NTExQiIgb2Zmc2V0PSIwJSI+PC9zdG9wPgogICAgICAgICAgICA8c3RvcCBzdG9wLWNvbG9yPSIjRkY5OTAwIiBvZmZzZXQ9IjEwMCUiPjwvc3RvcD4KICAgICAgICA8L2xpbmVhckdyYWRpZW50PgogICAgPC9kZWZzPgogICAgPGcgaWQ9Ikljb24tQXJjaGl0ZWN0dXJlLzY0L0FyY2hfQW1hem9uLUVDMl82NCIgc3Ryb2tlPSJub25lIiBzdHJva2Utd2lkdGg9IjEiIGZpbGw9Im5vbmUiIGZpbGwtcnVsZT0iZXZlbm9kZCI+CiAgICAgICAgPGcgaWQ9Ikljb24tQXJjaGl0ZWN0dXJlLUJHLzY0L0NvbXB1dGUiIGZpbGw9InVybCgjbGluZWFyR3JhZGllbnQtMSkiPgogICAgICAgICAgICA8cmVjdCBpZD0iUmVjdGFuZ2xlIiB4PSIwIiB5PSIwIiB3aWR0aD0iODAiIGhlaWdodD0iODAiPjwvcmVjdD4KICAgICAgICA8L2c+CiAgICAgICAgPHBhdGggZD0iTTI3LDUzIEw1Miw1MyBMNTIsMjggTDI3LDI4IEwyNyw1MyBaIE01NCwyOCBMNTgsMjggTDU4LDMwIEw1NCwzMCBMNTQsMzQgTDU4LDM0IEw1OCwzNiBMNTQsMzYgTDU0LDM5IEw1OCwzOSBMNTgsNDEgTDU0LDQxIEw1NCw0NSBMNTgsNDUgTDU4LDQ3IEw1NCw0NyBMNTQsNTEgTDU4LDUxIEw1OCw1MyBMNTQsNTMgTDU0LDUzLjEzNiBDNTQsNTQuMTY0IDUzLjE2NCw1NSA1Mi4xMzYsNTUgTDUyLDU1IEw1Miw1OSBMNTAsNTkgTDUwLDU1IEw0Niw1NSBMNDYsNTkgTDQ0LDU5IEw0NCw1NSBMNDEsNTUgTDQxLDU5IEwzOSw1OSBMMzksNTUgTDM1LDU1IEwzNSw1OSBMMzMsNTkgTDMzLDU1IEwyOSw1NSBMMjksNTkgTDI3LDU5IEwyNyw1NSBMMjYuODY0LDU1IEMyNS44MzYsNTUgMjUsNTQuMTY0IDI1LDUzLjEzNiBMMjUsNTMgTDIyLDUzIEwyMiw1MSBMMjUsNTEgTDI1LDQ3IEwyMiw0NyBMMjIsNDUgTDI1LDQ1IEwyNSw0MSBMMjIsNDEgTDIyLDM5IEwyNSwzOSBMMjUsMzYgTDIyLDM2IEwyMiwzNCBMMjUsMzQgTDI1LDMwIEwyMiwzMCBMMjIsMjggTDI1LDI4IEwyNSwyNy44NjQgQzI1LDI2LjgzNiAyNS44MzYsMjYgMjYuODY0LDI2IEwyNywyNiBMMjcsMjIgTDI5LDIyIEwyOSwyNiBMMzMsMjYgTDMzLDIyIEwzNSwyMiBMMzUsMjYgTDM5LDI2IEwzOSwyMiBMNDEsMjIgTDQxLDI2IEw0NCwyNiBMNDQsMjIgTDQ2LDIyIEw0NiwyNiBMNTAsMjYgTDUwLDIyIEw1MiwyMiBMNTIsMjYgTDUyLjEzNiwyNiBDNTMuMTY0LDI2IDU0LDI2LjgzNiA1NCwyNy44NjQgTDU0LDI4IFogTTQxLDY1Ljg3NiBDNDEsNjUuOTQ0IDQwLjk0NCw2NiA0MC44NzYsNjYgTDE0LjEyNCw2NiBDMTQuMDU2LDY2IDE0LDY1Ljk0NCAxNCw2NS44NzYgTDE0LDM5LjEyNCBDMTQsMzkuMDU2IDE0LjA1NiwzOSAxNC4xMjQsMzkgTDIwLDM5IEwyMCwzNyBMMTQuMTI0LDM3IEMxMi45NTMsMzcgMTIsMzcuOTUzIDEyLDM5LjEyNCBMMTIsNjUuODc2IEMxMiw2Ny4wNDcgMTIuOTUzLDY4IDE0LjEyNCw2OCBMNDAuODc2LDY4IEM0Mi4wNDcsNjggNDMsNjcuMDQ3IDQzLDY1Ljg3NiBMNDMsNjEgTDQxLDYxIEw0MSw2NS44NzYgWiBNNjgsMTQuMTI0IEw2OCw0MC44NzYgQzY4LDQyLjA0NyA2Ny4wNDcsNDMgNjUuODc2LDQzIEw2MCw0MyBMNjAsNDEgTDY1Ljg3Niw0MSBDNjUuOTQ0LDQxIDY2LDQwLjk0NCA2Niw0MC44NzYgTDY2LDE0LjEyNCBDNjYsMTQuMDU2IDY1Ljk0NCwxNCA2NS44NzYsMTQgTDM5LjEyNCwxNCBDMzkuMDU2LDE0IDM5LDE0LjA1NiAzOSwxNC4xMjQgTDM5LDIwIEwzNywyMCBMMzcsMTQuMTI0IEMzNywxMi45NTMgMzcuOTUzLDEyIDM5LjEyNCwxMiBMNjUuODc2LDEyIEM2Ny4wNDcsMTIgNjgsMTIuOTUzIDY4LDE0LjEyNCBMNjgsMTQuMTI0IFoiIGlkPSJBbWF6b24tRUMyX0ljb25fNjRfU3F1aWQiIGZpbGw9IiNGRkZGRkYiPjwvcGF0aD4KICAgIDwvZz4KPC9zdmc+;direction=south;" parent="MlvmVWSKSJ5KElF2x4cB-80" vertex="1">
          <mxGeometry x="53" y="80" width="40" height="40" as="geometry" />
        </mxCell>
        <mxCell id="LkJPUWECZAOm3Dws54fR-60" value="" style="endArrow=classic;html=1;strokeWidth=2;" parent="MlvmVWSKSJ5KElF2x4cB-80" edge="1">
          <mxGeometry width="50" height="50" relative="1" as="geometry">
            <mxPoint x="270" y="-60" as="sourcePoint" />
            <mxPoint x="130" y="60" as="targetPoint" />
            <Array as="points">
              <mxPoint x="160" y="-60" />
              <mxPoint x="159.89999999999998" y="60" />
            </Array>
          </mxGeometry>
        </mxCell>
        <mxCell id="MlvmVWSKSJ5KElF2x4cB-89" value="" style="shape=image;aspect=fixed;image=data:image/svg+xml,PD94bWwgdmVyc2lvbj0iMS4wIiBlbmNvZGluZz0iVVRGLTgiPz4KPHN2ZyB3aWR0aD0iODBweCIgaGVpZ2h0PSI4MHB4IiB2aWV3Qm94PSIwIDAgODAgODAiIHZlcnNpb249IjEuMSIgeG1sbnM9Imh0dHA6Ly93d3cudzMub3JnLzIwMDAvc3ZnIiB4bWxuczp4bGluaz0iaHR0cDovL3d3dy53My5vcmcvMTk5OS94bGluayI+CiAgICA8dGl0bGU+SWNvbi1BcmNoaXRlY3R1cmUvNjQvQXJjaF9BbWF6b24tU2ltcGxlLVN0b3JhZ2UtU2VydmljZV82NDwvdGl0bGU+CiAgICA8ZGVmcz4KICAgICAgICA8bGluZWFyR3JhZGllbnQgeDE9IjAlIiB5MT0iMTAwJSIgeDI9IjEwMCUiIHkyPSIwJSIgaWQ9ImxpbmVhckdyYWRpZW50LTEiPgogICAgICAgICAgICA8c3RvcCBzdG9wLWNvbG9yPSIjMUI2NjBGIiBvZmZzZXQ9IjAlIj48L3N0b3A+CiAgICAgICAgICAgIDxzdG9wIHN0b3AtY29sb3I9IiM2Q0FFM0UiIG9mZnNldD0iMTAwJSI+PC9zdG9wPgogICAgICAgIDwvbGluZWFyR3JhZGllbnQ+CiAgICA8L2RlZnM+CiAgICA8ZyBpZD0iSWNvbi1BcmNoaXRlY3R1cmUvNjQvQXJjaF9BbWF6b24tU2ltcGxlLVN0b3JhZ2UtU2VydmljZV82NCIgc3Ryb2tlPSJub25lIiBzdHJva2Utd2lkdGg9IjEiIGZpbGw9Im5vbmUiIGZpbGwtcnVsZT0iZXZlbm9kZCI+CiAgICAgICAgPGcgaWQ9IlJlY3RhbmdsZSIgZmlsbD0idXJsKCNsaW5lYXJHcmFkaWVudC0xKSI+CiAgICAgICAgICAgIDxyZWN0IHg9IjAiIHk9IjAiIHdpZHRoPSI4MCIgaGVpZ2h0PSI4MCI+PC9yZWN0PgogICAgICAgIDwvZz4KICAgICAgICA8ZyBpZD0iSWNvbi1TZXJ2aWNlLzY0L0FtYXpvbi1TaW1wbGUtU3RvcmFnZS1TZXJ2aWNlXzY0IiB0cmFuc2Zvcm09InRyYW5zbGF0ZSg4LjAwMDAwMCwgOC4wMDAwMDApIiBmaWxsPSIjRkZGRkZGIj4KICAgICAgICAgICAgPHBhdGggZD0iTTUyLjgzNTksMzQuODkyNiBMNTMuMjE5OSwzMi4xODg2IEM1Ni43NjA5LDM0LjMwOTYgNTYuODA2OSwzNS4xODU2IDU2LjgwNTkxMzIsMzUuMjA5NiBDNTYuNzk5OSwzNS4yMTQ2IDU2LjE5NTksMzUuNzE4NiA1Mi44MzU5LDM0Ljg5MjYgTDUyLjgzNTksMzQuODkyNiBaIE01MC44OTI5LDM0LjM1MjYgQzQ0Ljc3MjksMzIuNTAwNiAzNi4yNDk5LDI4LjU5MDYgMzIuODAwOSwyNi45NjA2IEMzMi44MDA5LDI2Ljk0NjYgMzIuODA0OSwyNi45MzM2IDMyLjgwNDksMjYuOTE5NiBDMzIuODA0OSwyNS41OTQ2IDMxLjcyNjksMjQuNTE2NiAzMC40MDA5LDI0LjUxNjYgQzI5LjA3NjksMjQuNTE2NiAyNy45OTg5LDI1LjU5NDYgMjcuOTk4OSwyNi45MTk2IEMyNy45OTg5LDI4LjI0NDYgMjkuMDc2OSwyOS4zMjI2IDMwLjQwMDksMjkuMzIyNiBDMzAuOTgyOSwyOS4zMjI2IDMxLjUxMDksMjkuMTA1NiAzMS45Mjc5LDI4Ljc2MDYgQzM1Ljk4NTksMzAuNjgxNiA0NC40NDI5LDM0LjUzNDYgNTAuNjA3OSwzNi4zNTQ2IEw0OC4xNjk5LDUzLjU2MDYgQzQ4LjE2MjksNTMuNjA3NiA0OC4xNTk5LDUzLjY1NDYgNDguMTU5OSw1My43MDE2IEM0OC4xNTk5LDU1LjIxNjYgNDEuNDUyOSw1Ny45OTk2IDMwLjQ5MzksNTcuOTk5NiBDMTkuNDE4OSw1Ny45OTk2IDEyLjY0MDksNTUuMjE2NiAxMi42NDA5LDUzLjcwMTYgQzEyLjY0MDksNTMuNjU1NiAxMi42Mzc5LDUzLjYxMDYgMTIuNjMxOSw1My41NjU2IEw3LjUzNzksMTYuMzU4NiBDMTEuOTQ2OSwxOS4zOTM2IDIxLjQyOTksMjAuOTk5NiAzMC40OTk5LDIwLjk5OTYgQzM5LjU1NTksMjAuOTk5NiA0OS4wMjI5LDE5LjM5OTYgNTMuNDQwOSwxNi4zNzM2IEw1MC44OTI5LDM0LjM1MjYgWiBNNi45OTk5LDEyLjQ3NzYgQzcuMDcxOSwxMS4xNjE2IDE0LjYzMzksNS45OTk2IDMwLjQ5OTksNS45OTk2IEM0Ni4zNjM5LDUuOTk5NiA1My45MjY5LDExLjE2MDYgNTMuOTk5OSwxMi40Nzc2IEw1My45OTk5LDEyLjkyNjYgQzUzLjEyOTksMTUuODc3NiA0My4zMjk5LDE4Ljk5OTYgMzAuNDk5OSwxOC45OTk2IEMxNy42NDc5LDE4Ljk5OTYgNy44NDI5LDE1Ljg2NzYgNi45OTk5LDEyLjkxMjYgTDYuOTk5OSwxMi40Nzc2IFogTTU1Ljk5OTksMTIuNDk5NiBDNTUuOTk5OSw5LjAzNDYgNDYuMDY1OSwzLjk5OTYgMzAuNDk5OSwzLjk5OTYgQzE0LjkzMzksMy45OTk2IDQuOTk5OSw5LjAzNDYgNC45OTk5LDEyLjQ5OTYgTDUuMDkzOSwxMy4yNTM2IEwxMC42NDE5LDUzLjc3NzYgQzEwLjc3NDksNTguMzA5NiAyMi44NjA5LDU5Ljk5OTYgMzAuNDkzOSw1OS45OTk2IEMzOS45NjU5LDU5Ljk5OTYgNTAuMDI4OSw1Ny44MjE2IDUwLjE1ODksNTMuNzgwNiBMNTIuNTU0OSwzNi44ODM2IEM1My44ODc5LDM3LjIwMjYgNTQuOTg0OSwzNy4zNjU2IDU1Ljg2NTksMzcuMzY1NiBDNTcuMDQ4OSwzNy4zNjU2IDU3Ljg0ODksMzcuMDc2NiA1OC4zMzM5LDM2LjQ5ODYgQzU4LjczMTksMzYuMDI0NiA1OC44ODM5LDM1LjQ1MDYgNTguNzY5OSwzNC44Mzk2IEM1OC41MTA5LDMzLjQ1NTYgNTYuODY3OSwzMS45NjM2IDUzLjUyMTksMzAuMDU0NiBMNTUuODk3OSwxMy4yOTI2IEw1NS45OTk5LDEyLjQ5OTYgWiIgaWQ9IkFtYXpvbi1TaW1wbGUtU3RvcmFnZS1TZXJ2aWNlLUljb25fNjRfU3F1aWQiPjwvcGF0aD4KICAgICAgICA8L2c+CiAgICA8L2c+Cjwvc3ZnPg==;" parent="1" vertex="1">
          <mxGeometry x="977.66" y="92.33000000000001" width="67.67" height="67.67" as="geometry" />
        </mxCell>
        <mxCell id="MlvmVWSKSJ5KElF2x4cB-101" value="S3 Bucket" style="text;strokeColor=none;align=center;fillColor=none;html=1;verticalAlign=middle;whiteSpace=wrap;rounded=0;fontStyle=1;fontSize=14;" parent="1" vertex="1">
          <mxGeometry x="942.5" y="155.67000000000002" width="138" height="30" as="geometry" />
        </mxCell>
        <mxCell id="MlvmVWSKSJ5KElF2x4cB-103" value="Tomcat Instances" style="text;strokeColor=none;align=center;fillColor=none;html=1;verticalAlign=middle;whiteSpace=wrap;rounded=0;fontStyle=1;fontSize=14;" parent="1" vertex="1">
          <mxGeometry x="748" y="150" width="138" height="30" as="geometry" />
        </mxCell>
        <mxCell id="LkJPUWECZAOm3Dws54fR-66" value="Private DNS Zones" style="shape=table;startSize=30;container=1;collapsible=0;childLayout=tableLayout;fixedRows=1;rowLines=0;fontStyle=0;strokeColor=default;fontSize=12;strokeWidth=2;" parent="1" vertex="1">
          <mxGeometry x="280" y="555" width="198.41" height="120" as="geometry" />
        </mxCell>
        <mxCell id="LkJPUWECZAOm3Dws54fR-67" value="" style="shape=tableRow;horizontal=0;startSize=0;swimlaneHead=0;swimlaneBody=0;top=0;left=0;bottom=0;right=0;collapsible=0;dropTarget=0;fillColor=none;points=[[0,0.5],[1,0.5]];portConstraint=eastwest;strokeColor=inherit;fontSize=16;" parent="LkJPUWECZAOm3Dws54fR-66" vertex="1">
          <mxGeometry y="30" width="198.41" height="30" as="geometry" />
        </mxCell>
        <mxCell id="LkJPUWECZAOm3Dws54fR-68" value="1" style="shape=partialRectangle;html=1;whiteSpace=wrap;connectable=0;fillColor=none;top=0;left=0;bottom=0;right=0;overflow=hidden;pointerEvents=1;strokeColor=inherit;fontSize=12;" parent="LkJPUWECZAOm3Dws54fR-67" vertex="1">
          <mxGeometry width="44" height="30" as="geometry">
            <mxRectangle width="44" height="30" as="alternateBounds" />
          </mxGeometry>
        </mxCell>
        <mxCell id="LkJPUWECZAOm3Dws54fR-69" value="&lt;font style=&quot;font-size: 12px;&quot;&gt;db01 =&amp;gt; IP&lt;/font&gt;" style="shape=partialRectangle;html=1;whiteSpace=wrap;connectable=0;fillColor=none;top=0;left=0;bottom=0;right=0;align=left;spacingLeft=6;overflow=hidden;strokeColor=inherit;fontSize=16;" parent="LkJPUWECZAOm3Dws54fR-67" vertex="1">
          <mxGeometry x="44" width="154" height="30" as="geometry">
            <mxRectangle width="154" height="30" as="alternateBounds" />
          </mxGeometry>
        </mxCell>
        <mxCell id="LkJPUWECZAOm3Dws54fR-70" value="" style="shape=tableRow;horizontal=0;startSize=0;swimlaneHead=0;swimlaneBody=0;top=0;left=0;bottom=0;right=0;collapsible=0;dropTarget=0;fillColor=none;points=[[0,0.5],[1,0.5]];portConstraint=eastwest;strokeColor=inherit;fontSize=16;" parent="LkJPUWECZAOm3Dws54fR-66" vertex="1">
          <mxGeometry y="60" width="198.41" height="30" as="geometry" />
        </mxCell>
        <mxCell id="LkJPUWECZAOm3Dws54fR-71" value="2" style="shape=partialRectangle;html=1;whiteSpace=wrap;connectable=0;fillColor=none;top=0;left=0;bottom=0;right=0;overflow=hidden;strokeColor=inherit;fontSize=12;" parent="LkJPUWECZAOm3Dws54fR-70" vertex="1">
          <mxGeometry width="44" height="30" as="geometry">
            <mxRectangle width="44" height="30" as="alternateBounds" />
          </mxGeometry>
        </mxCell>
        <mxCell id="LkJPUWECZAOm3Dws54fR-72" value="&lt;font style=&quot;font-size: 12px;&quot;&gt;mc01 =&amp;gt; IP&lt;/font&gt;" style="shape=partialRectangle;html=1;whiteSpace=wrap;connectable=0;fillColor=none;top=0;left=0;bottom=0;right=0;align=left;spacingLeft=6;overflow=hidden;strokeColor=inherit;fontSize=16;" parent="LkJPUWECZAOm3Dws54fR-70" vertex="1">
          <mxGeometry x="44" width="154" height="30" as="geometry">
            <mxRectangle width="154" height="30" as="alternateBounds" />
          </mxGeometry>
        </mxCell>
        <mxCell id="LkJPUWECZAOm3Dws54fR-73" value="" style="shape=tableRow;horizontal=0;startSize=0;swimlaneHead=0;swimlaneBody=0;top=0;left=0;bottom=0;right=0;collapsible=0;dropTarget=0;fillColor=none;points=[[0,0.5],[1,0.5]];portConstraint=eastwest;strokeColor=inherit;fontSize=16;" parent="LkJPUWECZAOm3Dws54fR-66" vertex="1">
          <mxGeometry y="90" width="198.41" height="30" as="geometry" />
        </mxCell>
        <mxCell id="LkJPUWECZAOm3Dws54fR-74" value="3" style="shape=partialRectangle;html=1;whiteSpace=wrap;connectable=0;fillColor=none;top=0;left=0;bottom=0;right=0;overflow=hidden;strokeColor=inherit;fontSize=12;" parent="LkJPUWECZAOm3Dws54fR-73" vertex="1">
          <mxGeometry width="44" height="30" as="geometry">
            <mxRectangle width="44" height="30" as="alternateBounds" />
          </mxGeometry>
        </mxCell>
        <mxCell id="LkJPUWECZAOm3Dws54fR-75" value="&lt;font style=&quot;font-size: 12px;&quot;&gt;rmq01 =&amp;gt; IP&lt;/font&gt;" style="shape=partialRectangle;html=1;whiteSpace=wrap;connectable=0;fillColor=none;top=0;left=0;bottom=0;right=0;align=left;spacingLeft=6;overflow=hidden;strokeColor=inherit;fontSize=16;" parent="LkJPUWECZAOm3Dws54fR-73" vertex="1">
          <mxGeometry x="44" width="154" height="30" as="geometry">
            <mxRectangle width="154" height="30" as="alternateBounds" />
          </mxGeometry>
        </mxCell>
        <mxCell id="LkJPUWECZAOm3Dws54fR-77" value="Backend DB Services" style="text;strokeColor=none;align=center;fillColor=none;html=1;verticalAlign=middle;whiteSpace=wrap;rounded=0;fontStyle=1;fontSize=14;" parent="1" vertex="1">
          <mxGeometry x="667.4" y="449" width="152.6" height="30" as="geometry" />
        </mxCell>
        <mxCell id="LkJPUWECZAOm3Dws54fR-95" value="" style="shape=image;aspect=fixed;image=data:image/svg+xml,PD94bWwgdmVyc2lvbj0iMS4wIiBlbmNvZGluZz0iVVRGLTgiPz4KPHN2ZyB3aWR0aD0iODBweCIgaGVpZ2h0PSI4MHB4IiB2aWV3Qm94PSIwIDAgODAgODAiIHZlcnNpb249IjEuMSIgeG1sbnM9Imh0dHA6Ly93d3cudzMub3JnLzIwMDAvc3ZnIiB4bWxuczp4bGluaz0iaHR0cDovL3d3dy53My5vcmcvMTk5OS94bGluayI+CiAgICA8IS0tIEdlbmVyYXRvcjogU2tldGNoIDY0ICg5MzUzNykgLSBodHRwczovL3NrZXRjaC5jb20gLS0+CiAgICA8dGl0bGU+SWNvbi1BcmNoaXRlY3R1cmUvNjQvQXJjaF9BV1MtQ2VydGlmaWNhdGUtTWFuYWdlcl82NDwvdGl0bGU+CiAgICA8ZGVzYz5DcmVhdGVkIHdpdGggU2tldGNoLjwvZGVzYz4KICAgIDxkZWZzPgogICAgICAgIDxsaW5lYXJHcmFkaWVudCB4MT0iMCUiIHkxPSIxMDAlIiB4Mj0iMTAwJSIgeTI9IjAlIiBpZD0ibGluZWFyR3JhZGllbnQtMSI+CiAgICAgICAgICAgIDxzdG9wIHN0b3AtY29sb3I9IiNCRDA4MTYiIG9mZnNldD0iMCUiPjwvc3RvcD4KICAgICAgICAgICAgPHN0b3Agc3RvcC1jb2xvcj0iI0ZGNTI1MiIgb2Zmc2V0PSIxMDAlIj48L3N0b3A+CiAgICAgICAgPC9saW5lYXJHcmFkaWVudD4KICAgIDwvZGVmcz4KICAgIDxnIGlkPSJJY29uLUFyY2hpdGVjdHVyZS82NC9BcmNoX0FXUy1DZXJ0aWZpY2F0ZS1NYW5hZ2VyXzY0IiBzdHJva2U9Im5vbmUiIHN0cm9rZS13aWR0aD0iMSIgZmlsbD0ibm9uZSIgZmlsbC1ydWxlPSJldmVub2RkIj4KICAgICAgICA8ZyBpZD0iSWNvbi1BcmNoaXRlY3R1cmUtQkcvNjQvU2VjdXJpdHktSWRlbnRpdHktQ29tcGxpYW5jZSIgZmlsbD0idXJsKCNsaW5lYXJHcmFkaWVudC0xKSI+CiAgICAgICAgICAgIDxyZWN0IGlkPSJSZWN0YW5nbGUiIHg9IjAiIHk9IjAiIHdpZHRoPSI4MCIgaGVpZ2h0PSI4MCI+PC9yZWN0PgogICAgICAgIDwvZz4KICAgICAgICA8cGF0aCBkPSJNMzUuNjk0LDM5LjI4MSBDMzUuOTQ0LDM5LjUyMiAzNi4wNSwzOS44NzQgMzUuOTc3LDQwLjIxMyBMMzQuOTUyLDQ0LjkyMiBMMzkuNDc3LDQyLjE0OCBDMzkuNzk4LDQxLjk1IDQwLjIwMiw0MS45NSA0MC41MjQsNDIuMTQ5IEw0NS4wMTYsNDQuOTE2IEw0NC4wMjEsNDAuMTk5IEM0My45NTEsMzkuODY0IDQ0LjA1NiwzOS41MTcgNDQuMywzOS4yNzggTDQ4LjMzOSwzNS4zMjQgTDQzLjA3MywzNC41NjQgQzQyLjc0NSwzNC41MTYgNDIuNDYzLDM0LjMxIDQyLjMxNywzNC4wMTMgTDM5Ljk5MSwyOS4yNTEgTDM3LjYxLDM0LjAyNSBDMzcuNDY1LDM0LjMxOCAzNy4xODQsMzQuNTIxIDM2Ljg2LDM0LjU2OCBMMzEuNjA5LDM1LjMzNSBMMzUuNjk0LDM5LjI4MSBaIE0zMi40OTksNDYuNzg3IEwzMy45MDQsNDAuMzMyIEwyOC43NTYsMzUuMzU5IEMyOC40ODEsMzUuMDk0IDI4LjM4MiwzNC42OTcgMjguNDk4LDM0LjMzMyBDMjguNjE1LDMzLjk3IDI4LjkyOCwzMy43MDUgMjkuMzA1LDMzLjY1MSBMMzYuMDUzLDMyLjY2NCBMMzkuMTA1LDI2LjU0NSBDMzkuMjc0LDI2LjIwNSAzOS41OTQsMjUuOTcxIDQwLjAwNCwyNS45OTEgQzQwLjM4NCwyNS45OTMgNDAuNzMxLDI2LjIxMSA0MC44OTgsMjYuNTUyIEw0My44ODIsMzIuNjYgTDUwLjYyNiwzMy42MzUgQzUxLjAwMywzMy42ODkgNTEuMzE1LDMzLjk1MiA1MS40MzMsMzQuMzE0IEM1MS41NTEsMzQuNjc2IDUxLjQ1NSwzNS4wNzMgNTEuMTgyLDM1LjMzOSBMNDYuMDkxLDQwLjMyMyBMNDcuNDU0LDQ2Ljc4MyBDNDcuNTM2LDQ3LjE3NSA0Ny4zNzgsNDcuNTc4IDQ3LjA1LDQ3LjgwOCBDNDYuNzI0LDQ4LjAzOCA0Ni4yOTIsNDguMDUxIDQ1Ljk1MSw0Ny44NDIgTDM5Ljk5OSw0NC4xNzQgTDMzLjk5OSw0Ny44NTIgQzMzLjgzOSw0Ny45NTEgMzMuNjU3LDQ4IDMzLjQ3Niw0OCBDMzMuMjczLDQ4IDMzLjA3LDQ3LjkzOCAzMi44OTcsNDcuODE1IEMzMi41NzEsNDcuNTgzIDMyLjQxNCw0Ny4xNzggMzIuNDk5LDQ2Ljc4NyBMMzIuNDk5LDQ2Ljc4NyBaIE0xNCwyMS4wMjEgTDY2LDIxLjAyMSBMNjYsMTYgTDE0LDE2IEwxNCwyMS4wMjEgWiBNNjgsMTUgTDY4LDY1IEM2OCw2NS41NTIgNjcuNTUyLDY2IDY3LDY2IEw2MSw2NiBMNjEsNjQgTDY2LDY0IEw2NiwyMy4wMjIgTDE0LDIzLjAyMiBMMTQsNjQgTDUyLDY0IEw1Miw2NiBMMTMsNjYgQzEyLjQ0Nyw2NiAxMiw2NS41NTIgMTIsNjUgTDEyLDE1IEMxMiwxNC40NDggMTIuNDQ3LDE0IDEzLDE0IEw2NywxNCBDNjcuNTUyLDE0IDY4LDE0LjQ0OCA2OCwxNSBMNjgsMTUgWiBNMjQsNTkgTDMwLDU5IEwzMCw1NyBMMjQsNTcgTDI0LDU5IFogTTM0LDU5IEw0OCw1OSBMNDgsNTcgTDM0LDU3IEwzNCw1OSBaIE0yNCw1NCBMMzAsNTQgTDMwLDUyIEwyNCw1MiBMMjQsNTQgWiBNMzQsNTQgTDU2LDU0IEw1Niw1MiBMMzQsNTIgTDM0LDU0IFoiIGlkPSJBV1MtQ2VydGlmaWNhdGUtTWFuYWdlcl9JY29uXzY0X1NxdWlkIiBmaWxsPSIjRkZGRkZGIj48L3BhdGg+CiAgICA8L2c+Cjwvc3ZnPg==;" parent="1" vertex="1">
          <mxGeometry x="368" y="369" width="51" height="51" as="geometry" />
        </mxCell>
        <mxCell id="LkJPUWECZAOm3Dws54fR-96" value="Amazon Certificate Manager (ACM)" style="text;strokeColor=none;align=center;fillColor=none;html=1;verticalAlign=middle;whiteSpace=wrap;rounded=0;fontStyle=1;fontSize=14;" parent="1" vertex="1">
          <mxGeometry x="322.65999999999997" y="419" width="137" height="30" as="geometry" />
        </mxCell>
        <mxCell id="MlvmVWSKSJ5KElF2x4cB-82" value="" style="shape=image;aspect=fixed;image=data:image/svg+xml,PD94bWwgdmVyc2lvbj0iMS4wIiBlbmNvZGluZz0iVVRGLTgiPz4KPHN2ZyB3aWR0aD0iODBweCIgaGVpZ2h0PSI4MHB4IiB2aWV3Qm94PSIwIDAgODAgODAiIHZlcnNpb249IjEuMSIgeG1sbnM9Imh0dHA6Ly93d3cudzMub3JnLzIwMDAvc3ZnIiB4bWxuczp4bGluaz0iaHR0cDovL3d3dy53My5vcmcvMTk5OS94bGluayI+CiAgICA8IS0tIEdlbmVyYXRvcjogU2tldGNoIDY0ICg5MzUzNykgLSBodHRwczovL3NrZXRjaC5jb20gLS0+CiAgICA8dGl0bGU+SWNvbi1BcmNoaXRlY3R1cmUvNjQvQXJjaF9BbWF6b24tRUMyXzY0PC90aXRsZT4KICAgIDxkZXNjPkNyZWF0ZWQgd2l0aCBTa2V0Y2guPC9kZXNjPgogICAgPGRlZnM+CiAgICAgICAgPGxpbmVhckdyYWRpZW50IHgxPSIwJSIgeTE9IjEwMCUiIHgyPSIxMDAlIiB5Mj0iMCUiIGlkPSJsaW5lYXJHcmFkaWVudC0xIj4KICAgICAgICAgICAgPHN0b3Agc3RvcC1jb2xvcj0iI0M4NTExQiIgb2Zmc2V0PSIwJSI+PC9zdG9wPgogICAgICAgICAgICA8c3RvcCBzdG9wLWNvbG9yPSIjRkY5OTAwIiBvZmZzZXQ9IjEwMCUiPjwvc3RvcD4KICAgICAgICA8L2xpbmVhckdyYWRpZW50PgogICAgPC9kZWZzPgogICAgPGcgaWQ9Ikljb24tQXJjaGl0ZWN0dXJlLzY0L0FyY2hfQW1hem9uLUVDMl82NCIgc3Ryb2tlPSJub25lIiBzdHJva2Utd2lkdGg9IjEiIGZpbGw9Im5vbmUiIGZpbGwtcnVsZT0iZXZlbm9kZCI+CiAgICAgICAgPGcgaWQ9Ikljb24tQXJjaGl0ZWN0dXJlLUJHLzY0L0NvbXB1dGUiIGZpbGw9InVybCgjbGluZWFyR3JhZGllbnQtMSkiPgogICAgICAgICAgICA8cmVjdCBpZD0iUmVjdGFuZ2xlIiB4PSIwIiB5PSIwIiB3aWR0aD0iODAiIGhlaWdodD0iODAiPjwvcmVjdD4KICAgICAgICA8L2c+CiAgICAgICAgPHBhdGggZD0iTTI3LDUzIEw1Miw1MyBMNTIsMjggTDI3LDI4IEwyNyw1MyBaIE01NCwyOCBMNTgsMjggTDU4LDMwIEw1NCwzMCBMNTQsMzQgTDU4LDM0IEw1OCwzNiBMNTQsMzYgTDU0LDM5IEw1OCwzOSBMNTgsNDEgTDU0LDQxIEw1NCw0NSBMNTgsNDUgTDU4LDQ3IEw1NCw0NyBMNTQsNTEgTDU4LDUxIEw1OCw1MyBMNTQsNTMgTDU0LDUzLjEzNiBDNTQsNTQuMTY0IDUzLjE2NCw1NSA1Mi4xMzYsNTUgTDUyLDU1IEw1Miw1OSBMNTAsNTkgTDUwLDU1IEw0Niw1NSBMNDYsNTkgTDQ0LDU5IEw0NCw1NSBMNDEsNTUgTDQxLDU5IEwzOSw1OSBMMzksNTUgTDM1LDU1IEwzNSw1OSBMMzMsNTkgTDMzLDU1IEwyOSw1NSBMMjksNTkgTDI3LDU5IEwyNyw1NSBMMjYuODY0LDU1IEMyNS44MzYsNTUgMjUsNTQuMTY0IDI1LDUzLjEzNiBMMjUsNTMgTDIyLDUzIEwyMiw1MSBMMjUsNTEgTDI1LDQ3IEwyMiw0NyBMMjIsNDUgTDI1LDQ1IEwyNSw0MSBMMjIsNDEgTDIyLDM5IEwyNSwzOSBMMjUsMzYgTDIyLDM2IEwyMiwzNCBMMjUsMzQgTDI1LDMwIEwyMiwzMCBMMjIsMjggTDI1LDI4IEwyNSwyNy44NjQgQzI1LDI2LjgzNiAyNS44MzYsMjYgMjYuODY0LDI2IEwyNywyNiBMMjcsMjIgTDI5LDIyIEwyOSwyNiBMMzMsMjYgTDMzLDIyIEwzNSwyMiBMMzUsMjYgTDM5LDI2IEwzOSwyMiBMNDEsMjIgTDQxLDI2IEw0NCwyNiBMNDQsMjIgTDQ2LDIyIEw0NiwyNiBMNTAsMjYgTDUwLDIyIEw1MiwyMiBMNTIsMjYgTDUyLjEzNiwyNiBDNTMuMTY0LDI2IDU0LDI2LjgzNiA1NCwyNy44NjQgTDU0LDI4IFogTTQxLDY1Ljg3NiBDNDEsNjUuOTQ0IDQwLjk0NCw2NiA0MC44NzYsNjYgTDE0LjEyNCw2NiBDMTQuMDU2LDY2IDE0LDY1Ljk0NCAxNCw2NS44NzYgTDE0LDM5LjEyNCBDMTQsMzkuMDU2IDE0LjA1NiwzOSAxNC4xMjQsMzkgTDIwLDM5IEwyMCwzNyBMMTQuMTI0LDM3IEMxMi45NTMsMzcgMTIsMzcuOTUzIDEyLDM5LjEyNCBMMTIsNjUuODc2IEMxMiw2Ny4wNDcgMTIuOTUzLDY4IDE0LjEyNCw2OCBMNDAuODc2LDY4IEM0Mi4wNDcsNjggNDMsNjcuMDQ3IDQzLDY1Ljg3NiBMNDMsNjEgTDQxLDYxIEw0MSw2NS44NzYgWiBNNjgsMTQuMTI0IEw2OCw0MC44NzYgQzY4LDQyLjA0NyA2Ny4wNDcsNDMgNjUuODc2LDQzIEw2MCw0MyBMNjAsNDEgTDY1Ljg3Niw0MSBDNjUuOTQ0LDQxIDY2LDQwLjk0NCA2Niw0MC44NzYgTDY2LDE0LjEyNCBDNjYsMTQuMDU2IDY1Ljk0NCwxNCA2NS44NzYsMTQgTDM5LjEyNCwxNCBDMzkuMDU2LDE0IDM5LDE0LjA1NiAzOSwxNC4xMjQgTDM5LDIwIEwzNywyMCBMMzcsMTQuMTI0IEMzNywxMi45NTMgMzcuOTUzLDEyIDM5LjEyNCwxMiBMNjUuODc2LDEyIEM2Ny4wNDcsMTIgNjgsMTIuOTUzIDY4LDE0LjEyNCBMNjgsMTQuMTI0IFoiIGlkPSJBbWF6b24tRUMyX0ljb25fNjRfU3F1aWQiIGZpbGw9IiNGRkZGRkYiPjwvcGF0aD4KICAgIDwvZz4KPC9zdmc+;" parent="1" vertex="1">
          <mxGeometry x="812.5" y="286.37" width="43.63" height="43.63" as="geometry" />
        </mxCell>
        <mxCell id="LkJPUWECZAOm3Dws54fR-104" value="" style="html=1;verticalLabelPosition=bottom;align=center;labelBackgroundColor=#ffffff;verticalAlign=top;strokeWidth=2;strokeColor=#0080F0;shadow=0;dashed=0;shape=mxgraph.ios7.icons.star;" parent="1" vertex="1">
          <mxGeometry x="340.28999999999996" y="298.18" width="14.66" height="20" as="geometry" />
        </mxCell>
        <mxCell id="LkJPUWECZAOm3Dws54fR-107" value="" style="endArrow=classic;html=1;rounded=1;curved=0;strokeWidth=2;" parent="1" edge="1">
          <mxGeometry width="50" height="50" relative="1" as="geometry">
            <mxPoint x="941" y="373" as="sourcePoint" />
            <mxPoint x="871" y="493" as="targetPoint" />
            <Array as="points">
              <mxPoint x="941" y="433" />
              <mxPoint x="871" y="433" />
            </Array>
          </mxGeometry>
        </mxCell>
        <mxCell id="22qIlZ9vfrOEo6Zabjm9-60" value="" style="outlineConnect=0;dashed=0;verticalLabelPosition=bottom;verticalAlign=top;align=center;html=1;shape=mxgraph.aws3.cloudfront;fillColor=#F58536;gradientColor=none;" parent="1" vertex="1">
          <mxGeometry x="427.79" y="219.66" width="62.21" height="77.34" as="geometry" />
        </mxCell>
        <mxCell id="22qIlZ9vfrOEo6Zabjm9-61" value="" style="outlineConnect=0;dashed=0;verticalLabelPosition=bottom;verticalAlign=top;align=center;html=1;shape=mxgraph.aws3.elastic_beanstalk;fillColor=#F58534;gradientColor=none;" parent="1" vertex="1">
          <mxGeometry x="526.04" y="97" width="48.96" height="48" as="geometry" />
        </mxCell>
        <mxCell id="22qIlZ9vfrOEo6Zabjm9-63" value="" style="endArrow=classic;html=1;strokeWidth=2;" parent="1" edge="1">
          <mxGeometry width="50" height="50" relative="1" as="geometry">
            <mxPoint x="646" y="258" as="sourcePoint" />
            <mxPoint x="737" y="257.51" as="targetPoint" />
          </mxGeometry>
        </mxCell>
        <mxCell id="22qIlZ9vfrOEo6Zabjm9-64" value="" style="endArrow=classic;startArrow=classic;html=1;rounded=0;" parent="1" target="MlvmVWSKSJ5KElF2x4cB-74" edge="1">
          <mxGeometry width="50" height="50" relative="1" as="geometry">
            <mxPoint x="393.45" y="371" as="sourcePoint" />
            <mxPoint x="393.45" y="281" as="targetPoint" />
          </mxGeometry>
        </mxCell>
        <mxCell id="22qIlZ9vfrOEo6Zabjm9-66" value="" style="endArrow=classic;html=1;strokeWidth=2;" parent="1" edge="1">
          <mxGeometry width="50" height="50" relative="1" as="geometry">
            <mxPoint x="360" y="257.83" as="sourcePoint" />
            <mxPoint x="595.05" y="258.33" as="targetPoint" />
          </mxGeometry>
        </mxCell>
        <mxCell id="22qIlZ9vfrOEo6Zabjm9-65" value="" style="edgeStyle=orthogonalEdgeStyle;rounded=0;orthogonalLoop=1;jettySize=auto;html=1;strokeWidth=2;" parent="1" source="MlvmVWSKSJ5KElF2x4cB-74" target="22qIlZ9vfrOEo6Zabjm9-60" edge="1">
          <mxGeometry relative="1" as="geometry">
            <Array as="points">
              <mxPoint x="420" y="314" />
              <mxPoint x="420" y="270" />
              <mxPoint x="408" y="270" />
              <mxPoint x="408" y="258" />
            </Array>
          </mxGeometry>
        </mxCell>
        <mxCell id="MlvmVWSKSJ5KElF2x4cB-74" value="" style="shape=image;aspect=fixed;image=data:image/png,iVBORw0KGgoAAAANSUhEUgAAAgAAAAIACAYAAAD0eNT6AAAACXBIWXMAAOw4AADsOAFxK8o4AAAAGXRFWHRTb2Z0d2FyZQB3d3cuaW5rc2NhcGUub3Jnm+48GgAAIABJREFUeJzt3Xe0Z1V58PHv9AFmRhAQEIgMMMygCAMKEksQ7Igxxoolr1lZMcYYNb4qaN4kaqJYSKzRoBhRFGsiRsWCMhYUBOkaQRSII9Ic2hSY/v6x743Xyy2/3z3l2efs72etZ8GCmd959t6nPKftA5IkSZIkSZIkSZIkSZIkSZIkSZIkSZIkSZIkSZIkSZIkSZIkSZIkSZIkSZIkSZIkSZIkSZIkSZIkSZIkSZIkSZIkSZIkSZIkSZIkSZIkSZIkSZIkSZIkSZIkSZIkSZIkTW9WdAJDWAKcABwLHAbsB+wMzAvMSZJUrs3AncANwOXAKuDLwNrAnAbWhQJgOfA64ERgh+BcJEmaygbgU8DbgWuDc5lSzgXAjsCbgVcCc4NzkSRpGJuB9wB/B9wbnMuEci0AlgH/CRwSnYgkSRX8EHgGcFN0IuPlWAAcDnwd2D06EUmSanAj8FTgiuhExsqtAFgGfB8P/pKkfvkVcBQZXQmYHZ3AGAuBz+HBX5LUP/sAXyI935aFOdEJjPE20n0SSZL66IHANtLrguFyuQWwHPgxPu0vSeq39aTb3eG3AnK5BfA6PPhLkvpvJ+Dvo5OAPK4ALCFVQtncF5EkqUEbgD0JnjEwhysAJ+DBX5JUjh2B46OTyKEAODY6AUmSWnZcdAI5FACHRScgSVLLDo1OIIcCYGl0ApIktWz/6ARyeAhwIzA/OglJklq0kTQBXpgcCoDt0QlIkhQg9Bicwy0ASZLUMgsASZIKZAEgSVKBLAAkSSqQBYAkSQWyAJAkqUAWAJIkFcgCQJKkAlkASJJUIAsASZIKZAEgSVKBLAAkSSqQBYAkSQWyAJAkqUAWAJIkKcT24JDGWwZsJn7dHI0zm23ufZTefpUjet0ungOg3JxJ/Ho5GluAFc029z5Kb7/KEb1+F88BUE5KP/stvf0qS/T6XTwHQDkp/ey39ParLNHrePEcAOWi9LPf0tuv8kSv48VzAJSL0s9+S2+/yhO9nhfPAVAOSj/7Lb39KlP0el48B0A5KP3st/T2q0zR63rxHABFK/3st/T2q1zR63rxHABFK/3st/T2q1zR63vxHABFKv3st/T2q2zR63vxHABFKv3st/T2q2zR63zxHABFKf3st/T2S9HrfPEcAEUp/ey39PZL0et98RwARSj97Lf09ksQv94XzwFQhNLPfktvvwTx636oudEJFGQJ8FTgOOAwYD9g55H/dydwA3A5cB7wFWBt6xlOrev5j7UMeF50EmN8Cri6xeWV3n5Jmeh7BXYQ8BFg/RA5rQdOJ+2oo3U9/4mUfvZbevulUdHrf/H6OgA7AKdS7T7rJuAdwMIG85xM1/OfTOn3vktvvzRW9PpfvD4OwDLgqhpzvADYq6Fc+5j/VEo/+y29/dJY0dtA8fo2AIcDtzaQ52rg0Aby7Vv+Uyn97Lf09kvjRW8DxevTACyjmYPnaKwG9qw55z7lP53Sz35Lb780XvR2ULy+DMBC0lPwTef7I9L9+bp1Pf/plH72W3r7pYlEbwfF68sAnNpizm+qMe++5D+d0s9+S2+/NJHobaF4fRiAg2j37Got9V5K73r+0yn97Lf09kuTid4WiteHAfhIQN4fqCn3PuQ/ndLPfktvvzSZ6O2heF0fgCUMN0lOXbEOWGz+0yr97Lf09ktTid4eitf1ATgxMPfnmv+0Sj/7Lb390lSit4lQs6MT6IHjOr7sruc/ldLnvC+9/ZIy1/UK7KLA3C8w/ymVfvZbevul6URvF8Xr+gDcFpj7LeY/qdLvfZfefmkQ0dtF8bo+ABsDc7/X/CdV+tlv6e2XBhG9bRSv6wPQ9QNo1/OfSOlnv6W3XxpU9LZRvK4PQNcvoXc9/4mUfvZbevulQUVvH6F8C6C66wOXfV0Nv9H1/Mcr/cn30tsvaUAWANVdHrjsK2r4ja7nP97fA3Mb+N2Z2Aq8peVllt5+SQOyAKjuvMBlf6uG3+h6/mOVfvZbevsldUzX78EsIk1r23be60aWXXr+Y5V+77v09kvDit5OiteHATg9IO8P1ZR7H/IHn3wvvf3STERvJ8XrwwAsAza1mPNGYP+acu9D/uDZb+ntl2YielspXl8G4B0t5nxKjXn3If/Sz35Lb780U9HbSvH6MgALSXPbN53vD4AFNebdh/xLP/stvf3STEVvL8Xr0wDsCfyywVxvBPauOeeu51/62W/p7ZeqiN5eite3ATgUWN1Anr8EHtpAvl3Pv/Sz39LbL1URvc0Ur48DsDvwnRpz/AHp7LwtXcm/9LPf0tsvVRW9zRSvrwOwAHgT1d6x3wi8lWbu+U+nC/mXfvZbevulqqK3m+L1fQD2BD7AcAfSdcBp1P+q3Ezkmn/pZ7+lt1+qQ/R2E2pWdALEd0JbfbAIeCpwLLASWArsPPL/7iR9lOcyYBVwDukgmpPc8j8TeGHDyxjUVuAQ2p32tvT2S3Uo5fiTraIrMM1I6We/pbdfqkv0tlM8B0DDKv3ed+ntl+oSvf0UzwHQMEo/+y29/VKdoref4jkAGkbpZ7+lt1+qU/Q2VDwHQIMq/ey39PZLdYvehornAGhQpZ/9lt5+qW7R21HxHAANovSz39LbLzUhejsqngOgQZR+9lt6+6UmRG9LxXMANJ3Sz35Lb7/UlOhtqXgOgKZT+tlv6e2XmhK9PRXPAdBUSj/7Lb39UpOit6fiOQCaSulnv6W3X2pS9DZVPAdAkyn97Lf09ktNi96miucAaDKln/2W3n6padHbVfEcAE2k9LPf0tsvtSF6uyqeA6CJlH72W3r7pTZEb1uhZkUnQAadIElSgNBj8OzIhUuSpBgWAJIkFcgCQJKkAlkASJJUIAsASZIKZAEgSVKBLAAkSSqQBYAkSQWyAJAkqUAWAJIkFcgCQJKkAlkASJJUIAsASZIKZAEgSVKBLAAkSSqQBYAkSQWyAJAkqUAWAJIkFcgCQJKkAlkASJJUIAsASZIKZAEgSVKBLAAkSSqQBYAkSQWyAJAkqUAWAJIkFcgCQJKkAlkASJJUIAsASZIKZAEgSVKBLAAkSSrQ3OgEMjArOgFJUojt0QlE8gqAJEkFsgCQJKlAFgCSJBXIAkCSpAJZAEiSVCALAEmSCmQBIElSgSwAJEkqkAWAJEkFsgCQJKlAFgCSJBXIAkCSpAJZAEiSVCALAEmSCmQBIElSgeZGJ6AizQEeBCwHVoz8cz/gfsBOI7HLyD8B1gN3jPxzHXA3cANwDXD1yD//B9jaUv7SRBYCBwBLSevzfsAewG7ArsDupHUcYAGw48i/bwA2jvz7XcBtwG+ANcAtwPWk9f164Drg3iYboXLMik4A2B68/Bz6oO8WAX8AHAc8FjiEtAOs00bgKuDbwCrgu6RiQWrC/YBHAkcAh47EMlJx26StwLXAlSNxKfADUuGg4RV9/Mnh4Ff0APTYg4HnAo8HjqL9q01bgIuAbwKfBn7a8vLVL7sATwCOBR5NWr9zuYW6DfgJcD5wHmmdvzM0o+7w+BNse3CoPrsALyHtiKLHdXz8BDiJdElWGsTBwN+S1uctxK/Dg8Zm0hWwN5Bur2ly0WNVPAeg+44BvghsIn48p4tNwNmkWxLSeAeSDvpXEL+u1hWXk4qB/Wvsp76IHpviOQDd9WjS5cboMZxpnA88DS/DlW4+8GzgXNLl9Oj1ssn4Eekq3Q619Fz3RY9H8RyA7vkj0o4keuzqiouBP6y1h9QFDwTeRnrqPnodbDtuA04B9qrci90WPQ7FcwC640Dgq8SPWVNxHum+r/rtUOBjpDdHote56NgIfJT0Zk6Jovu/eA5A/nYA3kh6/zh6vJqOTcB7SK8uql8eDHyW/l/mn0lsA74ErJxx73ZTdL8XzwHI2xNIk49Ej1Pb8QvSK4zqvgOAT5LeoY9er3KPrcCZlPPAYHR/F88ByNMc0ll/yTvNbaSrAfOqdaWC7ERah+8hfl3qWmwkrftLhu30jonu5+I5APnZg/REdPTY5BLfAfau1KNq0yzgxcDNxK87XY9fAy8aqve7Jbp/i+cA5OVJwK3Ej0tucQvpdojythT4BvHrS9/i28BBgw9DZ0T3a/EcgHz8CWkWsegxyTW2AH8+495Vk2YDryZ9MCp6PelrrANeRT5TINchuk+L5wDk4ZX4dPQgsY10X1n52Jf0Cmf0ulFKfAvYZ6CRyV90XxbPAYg1C3gH8ePQtXgv/ToT6qrnALcTvz6UFmuAZw4wPrmL7sfiOQBxZgFnED8GXY0zcBrhKHNJs/hFrwOlx2mkqZS7Krr/iucAxPln4vu/6/H+oXtdVe2Ol/xziu/R3SmFo/uueA5AjNcT3/d9iZOG7HvN3MNJr6ZFj7nxu3Ej8LApxi1X0f1WPAegfS/CB/7qjG3Anw01ApqJJwN3Ez/exsSxjvR1zS6J7rPiOQDtehK+6tdEbMZ5Apr0CtJrmNHjbEwdW4CXTTKGOYrur+I5AO3ZE7iJ+D7va9xK+sSs6nUS8WNrDBdvm3Ak8xPdT8VzANoxh/T+bnR/9z2+PdLXqsc/Ej+mxszi7ROMZ26i+6h4DkA73kJ8X5cSbx5wTDS5WaS5FqLH0qgW7xk/sJmJ7p/iOQDNewJlf9Wv7dgKPG6gkdFkfMe/P/Eu8hXdN8VzAJq1A+nb9tH9XFr8HFg4wPjovt5I/PgZ9cb/I0/R/VI8B6BZ3kONizdOPzwa5xXEj5vRTOT4dkB0n4TKYRrT6E7IoQ+asgy4Es9Eo2wEDgOuiU6kI54KfBEfouyrraTvB3wxOpExij7++DGTfnsPHvwjLQDeF51ERzwM+Awe/PtsDnAWcFR0IkpyOPstugJr0B8BX4hOQgA8Hfiv6CQythdwCd2dT17DGZ02+JboRCj8+JPDwa/oAWjQxaR50xXvUtJYRK/rOZpHmp/iMdGJqFU/AI4FNgXnEb1NegtAtXsyHvxzcgROEzyZd+HBv0SPpDuzBfZWDme/RVdgDfke8OjoJIZwC7AKuBC4GrgeuA1YP/L/dyJ9AnYpcDBwNPBYYI+2E63ge8AfRCeRmeeQ7vv30d3Az0gPgF498u+rSR/MWQ/cwe+u37sAi0b+fV9gObACOGgklrSYe5ueCfxn4PI9/gQr+jWMBhxDfJ8OEmtID8jN9IGgWcAjgPeP/FZ0ewYJz3R/a2+6M26DxDrgXNJ3Cx5G/VdX9wdeAnyWVDxEt7euuB34vRr7aVjR7S+eA1CvLxLfp1PFjcDfkM506rIT8Gry/0782TW2uctmk674RI9H1bgTOJ1UdM+ttYemNpd0BewjwF0V25BDfJO429HRbS+eA1Cf3UkP1UT36USxmfRa4uLGWg87kibf2ZhBeyeKTcBuTTW+Q/4v8WMx09gGfBV4HmmWzWg7ACeSctpGfP/MNF5Vd8cMKLrdxXMA6pPrLGo/Aw5vsN3jHQFc20A76oiXN9juLtiPdLk8ehyGja3Al0iX93N1CPBxUrEd3V/DxnrSbY62Rbe7eA5AfS4mvj/Hx9nEPMC0hPTufXT7x8dFTTY6c7Po3ieptwD/TppVsysOAj5Kyj26/4aJrzXRGdOIbnPxHIB6HEx8X46PM2j33uh4c4DTiO+H8bGiyUZn7MXE9/0wcQHtXrmq2xGkN2ui+3GYeGEjPTG56PYWzwGox5uJ78ux8WHyeMVlFulBrej+GBtvbLLBmVpM/g9pjsbtwCvpx7TEs4A/Ib1WG92vg8TNtHvFMLq9xXMA6vF94vtyNM4mr53nXPK6HfC9ZpubpbcT3++DxJdJD9P2ze7AV4jv30HiLQ31wUSi21o8B6C6xeTz9P+15DlpyWLSpCzR/bOdNFaLmm1uVg4A7iW+36cbk9eQx1WrpswCXkf+DwneQ3pYtA3RbS2eA1Dd8cT343bSTjTne6YPI5+d35MbbmtOziK+v6eKXwKPaqz1+TkKuI74fp8qPtZY639XdDuL5wBUdyrx/biddJk3d/9CfD91pa/q8BDSK3TR/T1ZXAU8sLHW52tP0keqovt/sthCerC5adHtLJ4DUN2PiO/HG6l3dr+mLAZuIr6/Snkd8D+I7+vJYhVwv+aanr1FwDeIH4fJ4tPNNf1/RbexeA5ANXNI98yi+/Fvmm5ojV5LfH9toP9f4zyUfGen+zywoLmmd8YC8i3StpKuIDUpuo3FcwCqOYD4PlxDN87+Ry0iveoV3W9Lm25osI8R38cTxefJ6y2VaHPItwj4SIPtJoP2Fc8BqCaHBwDf13gr6/cB4vvtSY23Ms7e5PlNhlXAwgbb3VXzyfN2wL3AXg22O7p9ofp+CbIEy6MTIM0/3jU55NznGQH/mnRQycllwNNJB5WuWQScAJxCmkfiZtKDcttIz7RcDHwQeA4ze8V0E/Bs4PI6kq3RAvx+Rq8VXYHV4N+I7b9b6Oa707NIO9HIvvvXxlsZYwH5zTz3P8AeTTa6IfsDHwLWMnhb15OmwD5wBsvbE1g9xLLaiFtprpiMblvxHIBqvkZs/32q+SY25jPE9t05zTcxxPOJ367Hxma6957/DsDbqDbB10bgHQx/y+PoisttIp49ZBsGFd2u4jkA1fyA2P57ZfNNbMzfENt35zffxBCriN+ux8Zrmm1u7Q4ErqC+9l9Felh4GCfXuPw64htD5j+o6HYVzwGo5ipi+6/LD7JFP0B5RfNNbN2B5PXq35fp1i2qw0m31eruh1uBlUPkMYu8vh2wlWamB45uVygfAuy+6Dnlfx68/CquDV7+4uDlN+G55HPAXQP8KRnsaAd0APB14AEN/PbuI7896HMB20l9d3sDuczEbNIDjuqZoiuwGqwhtv/u33wTG7MbsX13W/NNbN2VxG/To/HnDbe1Tgtp52reFaTnCwb10hZyGjQuGSLvQUW3qXgOQDXR71rn9qrXMBYQ23ddfB1tKiuI355H4yK6dYXznbTXN28bIq/ZwIUt5jZdLBsi90FEt6d4DkA19l819l99/pb4/txOej8+569Sjncg7Rbym0ivFw7q4aQ+jR7X7cBJQ+Q9iOj2hOpShSwpb0+JTmDEx0mT/nTFP9DulbR5wOuH+PM/Aj7ZUC7DymUd64UcHtaJroJy6IMq7L9q7L967EJ60nxucB5bgQcDPwvOY1DLgZ/Q/rcJ1pM+g3z3gH9+BSnP6JPGzaQHGu+q6feK3v6jB1NSPzyB+IM/wGfpzsEf4O+I+TDRTsCxQ/z5q0kfDIo2DzguOom+sACQVIfHRSdAOps7JTqJISwjvTYZ5ZFD/vm3EH/GDHmsa71gASCpDr8fnQDpPferopMYwj8Qe9Vk2OmRrwDObSKRIXVtWudsWQBIqmpn4CHRSQAfi05gCNFn/6M5DCuHr2g+FLhfdBJ9YAEgqaqjid+X3AV8MTiHYUSf/UN6cHNYXyB9mTDSHOARwTn0QvRGK6n7joxOAPgccE+Dv78YOJH0md3vAtcA60bimpH/dhrwPKafnnvFyJ/rog3A56OTIM1NoB4oeiKGGth/1dh/1UV/Vnk7cExDbVsGfJh04Bs0lw3Ah5h83v1PDvFbTcatM+yT4zLIva7PkEe3o3gOQDX2XzX2X3VXE9uHd1P/5fSFwDtIs+bNNK+NwNtHfmvUCvKZVe+iGfbNXFKfR+b+4xnmPl70GBTPAajG/qvG/qtmB+IPaF+quU0HUu9Hja4gfekP8jn73w58sEIfnROc+2bStzyqih6DUD4DIKmK/YmZyGas82r8rcOA80lPmtflUOD7pGcIop/8H2tV0N+tw1xgv+AcOs8CQFIVS6MToL4C4EDSXAJ71PR7Y+0BnEV8sTRqA/DVCn+/zqJrpnJY9zrNAkBSFfsFL/9u6pn8ZyHp6fYmDv45+jjVXue7jPQGRCQLgIosACRVsV/w8n8GbKvhd95Muvxfgq3Auyv+xjbiv7lgAVCRBYCkKvYMXv7VNfzGQcCravidrvgUae6Cqur4jSpKuVrTGAsASVXsFrz8Og5CryV9Za4EW0kf9alDdAEQve51ngWApCqid8JVD0I7kZ7OL8WnqOeqCVgAdJ4FgKQq7h+8/Bsr/v2nkYqAEmwF/qnG31td42/NxK7By+88CwBJVUw3733T7q7494+tJYtuqOve/6jojwJFr3udZwEgqYr5wcuvehB6cC1Z5K/Oe/+joguA6HWv8ywAJFURvROuehCKfouhLXXe+x8VXQDUMRVw0WZFJ0D8fMg59EEV9l819l81W4id3W4B6YM9M7WW/l9K3gocQv0FwALg3pp/cxhbqf4RqKK3f68ASFK/NXH2n4Pog3fnWQBIqiLyDBCqn73fVEsW+Wri3v+oxQ397qDuCV5+51kASKpiY/Dyqx6Ebq4li3w1efYfXQBEF5+dZwEgqYronXDVg9BPa8kiT3W/9z/ekgZ/exDR617nWQBIqiJ6J1z1IBT9Xfsm1f3e/3jRVwCirz51ngWApCpuD17+PhX//peA9XUkkpkm7/2P2rfh35/OmuDld54FgKQqbgle/vKKf389cFYdiWSmjSf/q/Z9VdHrXudZAEiqInonXMdB6J1Um0sgN03f+x9lAdBxFgCSqoh+ir6Og9C1wLtr+J1cNH3vf1R0ARC97nWeBYCkKqJ3wsupZz/298DlNfxOtDbu/UPq82UtLGcqXgGoyAJAUhU/D17+YuDQGn5nI/Asun9QaWvWv8OJn0L52uDld54FgKQq2rjUPJ3javqdXwBPIf7Nhplq694/1NfnVeSw7nWaBYCkKm4gfi6AY2v8rcuAx9HNV8zauvcP8QXAPcDq4Bw6zwJAUhXbSGfOkY4B5tX4e5cDj6dbRUBb9/4hfYHvUS0tazLXkNY9VWABIKmqHwcvfzH1H5C6VgS0+cW/Y4ifBfAnwcvvBQsASVVdFJ0A8MIGfrMrRUCbZ/8AL2pxWZP5YXQCfTArOgHiv+ncVh8sAU4g3a88DNgP2Jl6L12qPJuBO0n34i8nzW3/ZWBtizk8Cji/xeVN5G5gL2BDA7+9EvgmsGsDv12HT9DeQXlH0quf0VcAHkE9hWcpx59sbQ+Opi0HPkLaMUW31Sgj1gOn09572gtJr9FFt/t5DbZxJfCbDNo4PrYAKxps93gvaKgdw8S9wIKa2hPdluL1dQB2BE4lnaFFt9EoMzaRprldSPMuDmjf+Phaw23MsQg4s9EW39c3asx9plHn5f/othSvjwOwDLgqg7YZxnbgQtLl8Sa9M4N2bqOeSYGmklMR0PbZ/2GkPo5u9yk1tim6LcXr2wAcDtyaQbsMY2z8irQDb8rjM2jjdtLT8E3LpQho++z/czXmXiUeW2ObottSvD4NwDI8+Bv5xmqauxKwAFiXQRu30M5HaqKLgLbP/g8mvW0QPb7rqO/+Pxm0J5SvAdZnIalC3j06EWkS+wBfIj2fUreNwHca+N1hzQFObmE50a8ItvneP8AbyON48S3Suqae6EsFdmoGbTGMQeLNNONlGbRtO+ns+IiG2jjeEaQioM323Qsc0EbjRhxJHmf/24G/qLlt0e0pXh8GYDk+7W90J9bRzK2A3clnO7iY9s5Y2y4C6nwIbjqzSQ+RRo/ndtK69YCa2xfdpuL1YQA+kkE7DGOY+CDNODeDto3GSxpq40TaeibgCmCHltoE+VzV2Q6c00D7ottUvK4PwBLSxCvR7TCMYWI9zczm9mcZtG001tDuMzlNXwm4Cdi/tdaks+3bG2jHTOPFDbQxuk2hcnioo+tOoJmHqqQm7Qgc38DvfoE0AVEO7g+cQXvTrV5KejDwlgZ++1bgCcB1Dfz2RGYDHwN2aWl507kXODs6ib6xAKiuzm+RS21q4pvutwP/0cDvztTxwGtbXN5lwKOBK2v8zSuBo2j3q4snA09ucXnT+Szpmxfqma5fgrkogzYYxkziAprxmAzaNjY2kw7KbVoIvJ10NWSmeW8ifeWvjamcxzq6Yt5NxNENtTW6XcXr+gDclkEbDGMm0cSl6lG5TYX9S2DPBts7mQOBDzHcc0JrgX8jfTG0bQ8kzRoZPV5j47IG2xvdtlA5fIowuhOq9sFGYH4diUgt20hzZ5d/Bby/od+eqauAY4A7Apa9iHQ74ljSdOFLSZ8D30J6e+Am4EfAd0mfc27is8bTWUKazGllwLKn8hLgww39dtePP91d+IiuD0B0/lIVTe0DdgKuJ7+ZMb9Durd9b3QimZkPfIX0EGNObiUVS00VRNH779BjsA8BSmrCeuC90UlM4BjgE6Qpg5XMIU0tnNvBH+BdxFwNKYJXALwCoLI1uQ+4H3AD6VJ3br4InAjcE51IsAXAx4HnRCcygbtIz0E0+fR/9P7bKwCSeuku4APRSUzi6cBXSUVKqRaRPg6V48Ef0hUkX/1rkFcAvAKgsjW9D9gV+Dl5XgWA9FW/pwA3RyfSsr2ArwGHRicyiTtIb1Dc3vByovffXgGQ1FtrgLdGJzGFlaQPB7U9T0Cko4AfkO/BH+Afaf7grwx0/T3M6PwNo0q0YT7pKkB0W6eKzcAb6fdJ0SzgleQ3yc/4uI70bEIbottavK4PQHT+hlEl2vL8httRV3yF+j85m4MHkJ55iO7fQeLZDfXBRKLbWryuD0B0/oZRJdoyC/heg+2oM9YAL6UfVwNmA39JXl/1myrOo9374tHtDeVDgD4EqLK1uQ9YTvqefVuXd6u6lDSj4YXRiczQEcC/0tw8+nXbSJol8actLjN6/+1DgJKKcA3wjugkhnAEcD7ps7grgnMZxsGkd/svpjsHf0gfPmrz4K8MdP0STHT+hlEl2raQVAhEt3vY2Er6JO1h9XdJbVYCnyPlGt1fw8ZPiPmmSnS7Q3kLwFsAKlvEPuBo0vMAcwOWXdV24FzSVYGziZ+mdkfgGcD/IU3lm8M+fVibgUeSPobUtuj9dxfHq1Zdr8Ci8zeMKhHl76bJqwtxN/DvwHG0W8zMAx4HnDGSQ3Q/VI2Ta+2d4US3PVQO1UfZAUB0AAAVSElEQVR0J3gFQCWL2gfMJj3xfUzQ8uu2gTS5zjeB75MeHNxS02/PJt3XfxTpLP+J9GcK4++RPpG8NWj50ftvPwccvHwLAJUsch+wH+lJ+10Cc2jKOuBnpOcdRmP1yH9fS5rjft3In11Emip58UjsQ3pjYgVw0EgsajH3ttxOem5hdWAO0ftvC4Dg5Xe9AMhhDDVzpa8/TyBNUOPnecuyDTiBNPaRit7+fA1QUqRzSc8DqCwnEX/wL1509Q/dr8C6nr9iuf6kHD5Nvp+lVb3+E3gW8es+xOfgLYDg5VsAKJLrT7IIWAU8PDoRNeoi0lsT66MTGVH09pfDxt/1Aeh6/orl+vNbu5Fm3lsenYga8XPSZ5dviU5kjKK3P58BkJSL3wDHAzdHJ6La3Qo8hbwO/sWzAJCUk+tIT4ffFZ2IanMn8CTSFQBlxAJAUm4uIc10d3t0IqrsLtLB//LoRHRfFgCScnQJaY4Ai4Duuos0a+FF0YloYhYAknJ1Kem+8Z3RiWhod5CmLfbgnzELAEk5u4j05HjkdLEazq9J8/tHfN1PQ7AAkJS7n5A+IXxFdCKalmPVIRYAkrpg9Kzyu9GJaFLfxqs1nWIBIKkr7iC9HfD26ER0Hx8iPe3v8xodksMsYF2fianr+SuW68/MvJB00NkhOpHCbQReDpwencgMFb395bDxd30Aup6/Yrn+zNzRwPeAudGJFGoL8BjgwuhEKih6+8th4+/6AHQ9/xzsSfpAyCOAFcD+wK6kD8QArAPWkGaJu5q0w1lFP6aMdf2pJrr/Suf6U40FQPDyLQBi7Aq8AHgRM/8C3MXAmcBZpAKhi1x/qonuv9K5/lRjARC8fAuAdu0DvAb4c2DHmn5zPfBh4FTgxpp+sy2uP9VE91/pXH+qsQAIXr4FQDvmAS8D/onfXtqv2wbgncAppIeTusD1p5ro/iud6081FgDBy7cAaN5y4DPAYS0t73LgucDPWlpeFa4/1UT3X+lcf6oJ7T/nAVDTnkmaErStgz/AypFlPqPFZUpSp1gAqEkvBj5Nc5f8p7IY+Bzw0oBlS1L2LADUlL8APkrsO9pzgA8Cfx2YgyRlKYf7N12/B9P1/JvwTNI9/znRiYzYCjwLODs6kQm4/lQT3X+lc/2pxocAg5dvAVCvA4FLgCXRiYyzDjiSNJFQTlx/qonuv9K5/lTjQ4DqjfnA58nv4A/pOYSzSK8jSlLxLABUp1fT7tP+wzoceGV0EpKUgxwu33T9EkzX86/L3sA1wE7RiUxjHXAQcFN0IiNcf6qJ7r/Suf5U4y0A9cJryf/gD+lWwGuik5CkaDlUb12vwLqefx12BX5JfXP7N2098CDy+ICQ60810f33euBQ4BDSlyybfsZkM+lB1h8DV5KmvY7k+lONbwEEL98CoLpXAO+JTmJILwf+NToJXH+qyqn/5gNLgf1G/rmU9Knr3UhF8q7ALqQrr/P43c9dbwa2AXeQCtM1wG9In7y+flxsHrPMnNrfRUX3Xw6D1/UB6Hr+dbiYmX/SN8pFwCOik8D1p6rS+6/09ldVdP/lMHhdH4Cu51/VXqRP8EbnMaztpNxvySCPSF0bt/FK77/S219V0f3nQ4Cq6li6uROYBTw2OglJimIBoKpyuIw+U0dHJyBJUSwAVNWK6AQqWB6dgCRFsQBQVQdGJ1DBsugEJCmKBYCq2jk6gQq6nLskVWIBoKoWTf9HsrU4OgFJimIBIElSgSwAVNW66AQqWBudgCRFsQBQVXdEJ1DBndEJSFIUCwBV9YvoBCq4NjoBSYpiAaCqro5OoIJrohOQpCgWAKrqwugEKrggOgFJipLDHO5d/xhD1/Ovag/gpgzyGJYfA0q6Nm7jld5/pbe/qqL7zysAquoW4EfRSczAD4k/+EtSGAuA6rYGL39+8PIBzoxOYAZyyHlB8PKj111JgSwAqtsUvPwcZuI7C1gfncQQ1gOfiU6C+JkINwYvX1IgC4DqoguA6IMIwBrgw9FJDOHfSDlHix47CwCpYBYA1VkAJKfSjasAa0m55mBJ8PKj111JgSwAqoueCjf6IDLqRuAfo5MYwJuAm6OTGBFdvEWvu5ICWQBUF30peZ/g5Y/1L8Bl0UlM4VLgvdFJjLFv8PJ/E7x8SYEsAKqL3okuD17+WJuB5wB3RycygXXA80k55iJ67KLXXUmBLACqi96JRh9Exvs58GLyesVsK/AC8pv6N3rsotddSYEsAKqLvp8cfRCZyBeAl0UnMWI78FLgv6ITmcBBwct3IiSpYBYA1d0QvPzl5DmOHwL+FNgSmMNW4C+B0wNzmMxs4guAG4KXLylQjgeOrrkhePmLgUODc5jMGcCzSa/ete1u4I+B0wKWPYjDiZ/E6brg5UsKZAFQ3Q3RCQDHRScwhbOBh9Hu2wGXjiwzx8v+o3IYsxuiE5AUxwKguuuIf+Ath4PJVK4FjgJeRbNXAzaQ3vP/fdLDiDk7Nnj5m7EAkBRse3DU4b+D23A3MK+mtjRtL9J8Aeuor/3rgH8G9myxHVXMJY1Z5DpzVeOtbEcf9h9VlN7+quy/YH0YgM9k0I7H1tSWtuwKvBy4ENjG8O3dBlwA/BVw/5Zzr+pxxK8vZzXeynZE92O00ttfVdH9Nzc6gZ64kjQBTqQXAt8OzmEYa4D3j8QDSJfEjwZWAEuB3fntQ3LrgNuA64GrSUXDKuDWdlOuzYuiEyCts5IKNis6AeKroDr64MnAV2v4nSruJl0Cvyc4D01tR9LcEdHfAXgS8I3gHOrQlf3HYuAE0pW6g4E9gL1H/t+NpDkZfkoqbL/M4N9p6Er7c2X/BevDJZglpPfdo9vyvJrao+a8gPj1ZAv5fESqqui+nM4y0qeyNwzxmxtI82gc2IP2587+C9aXAbgig7Z8rcb2qBnfIH49ubTxVrYnui8nsxB4B+mTyzP97Y3A20d+q2vt7wr7L1hfBuCDGbRlG/lOCiRYycweeKw73td0Q1sU3ZcTOZD0jEVdy7gCOKBD7e+SovvPeQDqc150AqT7Sa+PTkKT+lvyuOf3regEeuxw4HzgoTX+5qHA90d+W+qVvlRg96Pa5b66Ygt5fiCodAeTJoyKXj82kdbVvojuz7FWkr6w2NSy7gCOzLj9XVR0/3kFoD53kV5PizYHODk6Cd3HG8hjezuftK6qXiuBb5Lmt2jKzqRnSMYXAdKM5LBD6pNcHsJ7EXBEdBL6X0cCz49OYkQu62iftHHwH2URoF7p0yWY5Rm0ZzQuxgIvB7NJV4ai14fRGOTVsi6J7s+mL/tPFqO3A6Lb33X2X7C+DcDlGbRpNF7SQPs0nJcRvx6MxsUNtzVCdJ+uKXTZo9F1RfefZ4j1+2x0AmOcQppSVzEeAPxTdBJj5LRu9kXkdyi69g0MZcYCoH6fJoPKbsT9gTPI49Wz0swGPgbsEp3IiG2kj1ZJEmAB0ITrSPN55+J44LXRSRToZNI3InJxLvDL6CQkaaw+3oN5XgbtGhubgUc31Fbd19HkMSfE2HhWoy2OE92vpUfXFd1/OVwaju6EJvpgAfArYLcGfnumVgNHkb5Ep+Y8ELiI337pLQe3AvuSipK+id5/lC6HY0gV0etPaP95C6AZG4HTo5MYZ1/SJ4v7NAtcbu5H6uOcDv6Q1sU+HvwlVZBD9dbXCmwP4Aam/pJXhO+Q7k3fG51Iz8wHvgI8PjqRcTYCS4GbohNpSPT+o3Q5HEOqiF5/vALQU7eQ3gjIzTHAJ0hTBqsec4BPkd/BH9JY9/XgL6nj+vwQxiHk8fnXieI/yO/qRBctJPVl9HhOFFtJHyHqs+g+Lj26zv4L1vcB+Gxw+6aKb+MzAVUsIs3LHj2Ok8Unm2t6NqL7uPTouqL7L4f7N9Gd0HQfHAT8N/lecv8x6ZmAG6MT6Zg9SQ/8rYxOZBJbSVegro5OpGHR+4/S5XAMqSJ6/fEZgJ77GXk+CzDqENLHapwnYHBHAReQ78Ef4Ez6f/CX1HElXILZH7inxTbNJDYDJ9H9ir5Js4DXk/oqerymig3Agxrqg9xE93Xp0XX2X7BSBuCtDbejrvgK6SM2+l0PIF3yjx6fQeLNDfVBjqL7uvToOvsvWCkDsIh0nz26vYPEHcAryfe5hTbNBv4EuI34cRkkfgXs1EhP5Cm6v0uPrrP/gpU0AC+qOfem4yLg4Y30RDccCVxM/DgMEyc20hP5iu7v0qPr7L9gJQ3ALPJ+bWyi2EL6rO2KBvojVwcDHyc9SR/d/8PEOU10Ruai+7z06Dr7L1hpA/AgYG2FfKNiK/Al+n1F4KGkA/8W4vt72FhPmvK3NNH9Xnp0nf0XrMQBeNWQOeYU24CvA88Hdqy7YwLsCLyAdGUm11kbB4lX1N0xHRHd76VH19l/wUocgNnAN4fIMde4G/h34Dhgbq091Kx5wOOAM0htiO7HqvENyp3TI7rvS4+uK7r/cnjnO7oTovpgb+AKYNeg5ddtA/ADUmHzfdLkQltCM/qt2aT7+o8ifbDnifRnCuTfAIcBv45OJEj0/qN0ORxDqohef0L7L4fBK3kAngl8PnD5TVpHmgXxmjGxeuS/rwXuHPn3qt+pn096xXJnYPFI7AMsJz24eNBILKq4nBxtB54BfDE6kUDR+4/S5XAMqSJ6/bEACF5+dB+8m/TOvTSsdwKvi04iWPT+o3TR+8+qotcfC4Dg5Uf3wVzSZfNjgvNQt6wi3crI5TZLlOj9R+mi959VRa8/FgDBy8+hD/YELgEeGJ2IOmE16XXMW6MTyUD0/qN0Oew/q4hef/waoLgZeBrpnrg0lbXAH+LBX1JFFgD5uBR4Ll7S1eS2Ai8ELo9ORFL3WQDk5Rx8IFCT+yvgv6KTkNQPFgD5+QDw99FJKDtvAE6LTkK1un0kpBA5PMBR9EMYUzgFODk6CWXhXcCro5PIVPT+Y6buJL3FsZn0FlBXJwTLdf85qOj1p+v9V1nRUzFO4z3E948RG+9GU4ken5nEHaRPTY9aSZrRMTqvmUTX2X/BHICpvYn4PjJi4m1oOtFjNGyMP/iP6moR0HX2XzAHYHonEd9PRrvxD2gQ0eM0TEx28B/VxSKg6+y/YA7AYF5GN79TbwwXm4G/QIOKHq9BY7qD/6iuFQFdZ/8FcwAG90TgLuL7zGgm1gInoGFEj9kgMejBf1SXioCus/+COQDDOQL4FfH9ZtQbq0k7fg0netymi2EP/qO6UgR0nf0XzAEY3m6kV4ei+86oJ75D+h6Ehhc9dlPFTA/+o7pQBHSd/RfMAZiZuaSnxLcR34fGzOM0YB6aqejxmyyqHvxH5V4EdJ39F8wBqOaPyXsHYUwctwFPn2A8NZwNxI/l+Kjr4D8q1yKgDx8vi+7D4jkA1e1B+o5AdF8ag8U3gb0nHEkNazXx4zk26j74j8qxCPifBtrZtug+LJ4DUI/ZwKtIVXl0nxoTx1rgFTj9Z51+SPy4jsYa0kO6TTliZBnR7RyNCxpsa1ui+7B4DkC99gO+Rny/Gr8b5wAPmnzYNEO5TJfd1Jn/eDldCfiXhtvahug+LJ4D0IwXAjcS37+lx2rgxGnGSjP3HOLHuOkz//FyuRLwrKYb2oLoPiyeA9CcHYE3kueDUn2PDaS3NBZPN0iqZCdiJ8dq68x/vOgrAXeS9i9dF72fKJ4D0Lz9gI/jVMJtxBbgDLzc36bTiBnrts/8x4u8EvCBFtrXhuj9RfEcgPaswEKgqdgKfBZYPvBoqC5LgXtod7yjzvzHi7gScA/ppKIPovcbxXMA2vcQ4CPAvcT3f9fjXuB04OChRkB1O4X2xjz6zH+8tq8EvLWdZrUiev9RPAcgzl6kjflW4seha3EL8BacwjcXC4GLaX7ccznzH6+tKwGXATu01KY2RO9HiucAxJsPPI10CdvbA5PHVuBc4Nkjfaa87EezxWxuZ/7jNX0l4Fb692xL9D6leA5AXh4EvA64hPixySUuBl4L/F6FflU7HgL8mvrXgRvpxtcaDwdupv72/xp4cIvtaEv0vqV4DkC+lgEnAauATcSPVVuxCTiPVAgdULkX1bYDgUupb324DNin1RZUcwBwOfW1/xL6ux1E72uK5wB0wxLSh4feR9oh9ulWwRbSAeN9wDPw3f0+mE96MLDKg673kubRWNBu6rVYSJqHYiPV2v9W+n27K3rfUzwHoJuWAE8CXg98GvgJsJn48ZwuNgM/Bj4FnAw8EQ/4fbYv6Z31tQy+jqwF3gvsH5Bv3Q4gzZOwnsHbv47UZ/sG5Nu26P1RqBw+ShLdCTn0QV8sIL2TvZT0QNZS0lPyu46JXUgfLpoHLKppuetIB/ZtpKe014zEb0j3Q28Arh/553WkS/wqyw7AU0gF3yGk21vzgJ2Bm0jrxpXA14FvkYqAPlkEHA8cS3pOYCmp7ZBm9buedNtgFfAV+vGp30EUffzJ4eBX9ABIksIUffyZHblwSZIUwwJAkqQCWQBIklQgCwBJkgpkASBJUoEsACRJKpAFgCRJBbIAkCSpQBYAkiQVyAJAkqQCWQBIklQgCwBJkgpkASBJUoEsACRJKpAFgCRJBZobnUAGor8HLUlS67wCIElSgSwAJEkqkAWAJEkFsgCQJKlAFgCSJBXIAkCSpAJZAEiSVCALAEmSCmQBIElSgSwAJEkqkAWAJEkFsgCQJKlAFgCSJBXIAkCSpAJZAEiSVKAcCoBN0QlIktSyjdEJ5FAA3B2dgCRJLbsrOoEcCoDroxOQJKll10UnkEMBcHl0ApIkteyK6ARyKABWRScgSVLLzotOYFZ0AsBi4GZgx+hEJElqwQZgD2BdZBI5XAFYC3w6OglJklpyFsEHf8jjCgDAQcCPgXnRiUiS1KBNwIOBX0QnMic6gRFrgCXAI6MTkSSpQacCn4tOAvK5AgCwkPRA4NHRiUiS1IBLgMcA90QnAnkVAAB7AhcB+0YnIklSjW4CjgRujE5kVA4PAY51M/A0MuogSZIq+hXwZDI7tuVWAECaHOFI4IfRiUiSVNGFwFHAldGJjJfLQ4DjrQM+AWwHHg7Mj01HkqShbCY98PenwJ3BuUwo1wIAYAvpocCPAjuRXpvwNUFJUs7WAx8HTiQ97b8lNp3J5fYQ4FQWA8cDxwIrgaXAznh1QJIUYxPp7P560ndtzgPOIYNJfiRJkiRJkiRJkiRJkiRJkiRJkiRJkiRJkiRJkiRJkiRJkiRJkiRJkiRJkiRJkiRJkiRJkiRJkiRJkiRJkiRJkiRJkiRJkiRJkiRJkiRJkiRJkiRJkiRJkiRJkiRJkiRJqsv/B7QUpAfYkzcLAAAAAElFTkSuQmCC;" parent="1" vertex="1">
          <mxGeometry x="370.33" y="290.37" width="47.67" height="47.67" as="geometry" />
        </mxCell>
        <mxCell id="LkJPUWECZAOm3Dws54fR-59" value="" style="shape=image;aspect=fixed;image=data:image/svg+xml,PD94bWwgdmVyc2lvbj0iMS4wIiBlbmNvZGluZz0iVVRGLTgiPz4KPHN2ZyB3aWR0aD0iODBweCIgaGVpZ2h0PSI4MHB4IiB2aWV3Qm94PSIwIDAgODAgODAiIHZlcnNpb249IjEuMSIgeG1sbnM9Imh0dHA6Ly93d3cudzMub3JnLzIwMDAvc3ZnIiB4bWxuczp4bGluaz0iaHR0cDovL3d3dy53My5vcmcvMTk5OS94bGluayI+CiAgICA8IS0tIEdlbmVyYXRvcjogU2tldGNoIDY0ICg5MzUzNykgLSBodHRwczovL3NrZXRjaC5jb20gLS0+CiAgICA8dGl0bGU+SWNvbi1BcmNoaXRlY3R1cmUvNjQvQXJjaF9BbWF6b24tUm91dGUtNTNfNjQ8L3RpdGxlPgogICAgPGRlc2M+Q3JlYXRlZCB3aXRoIFNrZXRjaC48L2Rlc2M+CiAgICA8ZGVmcz4KICAgICAgICA8bGluZWFyR3JhZGllbnQgeDE9IjAlIiB5MT0iMTAwJSIgeDI9IjEwMCUiIHkyPSIwJSIgaWQ9ImxpbmVhckdyYWRpZW50LTEiPgogICAgICAgICAgICA8c3RvcCBzdG9wLWNvbG9yPSIjNEQyN0E4IiBvZmZzZXQ9IjAlIj48L3N0b3A+CiAgICAgICAgICAgIDxzdG9wIHN0b3AtY29sb3I9IiNBMTY2RkYiIG9mZnNldD0iMTAwJSI+PC9zdG9wPgogICAgICAgIDwvbGluZWFyR3JhZGllbnQ+CiAgICA8L2RlZnM+CiAgICA8ZyBpZD0iSWNvbi1BcmNoaXRlY3R1cmUvNjQvQXJjaF9BbWF6b24tUm91dGUtNTNfNjQiIHN0cm9rZT0ibm9uZSIgc3Ryb2tlLXdpZHRoPSIxIiBmaWxsPSJub25lIiBmaWxsLXJ1bGU9ImV2ZW5vZGQiPgogICAgICAgIDxnIGlkPSJJY29uLUFyY2hpdGVjdHVyZS1CRy82NC9OZXR3b3JraW5nLUNvbnRlbnQtRGVsaXZlcnkiIGZpbGw9InVybCgjbGluZWFyR3JhZGllbnQtMSkiPgogICAgICAgICAgICA8cmVjdCBpZD0iUmVjdGFuZ2xlIiB4PSIwIiB5PSIwIiB3aWR0aD0iODAiIGhlaWdodD0iODAiPjwvcmVjdD4KICAgICAgICA8L2c+CiAgICAgICAgPHBhdGggZD0iTTQ4LjY5Miw0MC42Nzk1MTA5IEM0OS40MzEsNDEuMzYyNzczMiA0OS44MDEsNDIuMjc4MTI0NiA0OS44MDEsNDMuNDI3NTY1OSBDNDkuODAxLDQ0LjY3ODA0NiA0OS4zNTEsNDUuNjc2NDI5MyA0OC40NTIsNDYuNDIyNzE1OSBDNDcuNTUyLDQ3LjE3MDAwMjggNDYuMzQzLDQ3LjU0MzE0NiA0NC44MjYsNDcuNTQzMTQ2IEM0My42MjcsNDcuNTQzMTQ2IDQyLjQ0LDQ3LjI4NzA0NzcgNDEuMjY2LDQ2Ljc3Njg1MTggTDQxLjI2Niw0NS4yNDUyNjM4IEM0Mi42NTcsNDUuNzA1NDQwNSA0My44NDMsNDUuOTM0NTI4NCA0NC44MjYsNDUuOTM0NTI4NCBDNDUuNzk2LDQ1LjkzNDUyODQgNDYuNTQyLDQ1LjcxNzQ0NTEgNDcuMDY1LDQ1LjI4NDI3ODggQzQ3LjU4OCw0NC44NTAxMTIxIDQ3Ljg0OSw0NC4yMzA4NzQ0IDQ3Ljg0OSw0My40Mjc1NjU5IEM0Ny44NDksNDEuODgyOTcyOSA0Ni44NzQsNDEuMTEwNjc2NCA0NC45MjEsNDEuMTEwNjc2NCBDNDQuMzA5LDQxLjExMDY3NjQgNDMuNzAzLDQxLjE0MjY4ODcgNDMuMTAzLDQxLjIwNTcxMjkgTDQzLjEwMywzOS45NDMyMjgyIEw0Ny4xMjMsMzUuNTU4NTQ0OCBMNDEuNDU4LDM1LjU1ODU0NDggTDQxLjQ1OCwzMy45ODg5NDIyIEw0OS4yNDcsMzMuOTg4OTQyMiBMNDkuMjQ3LDM1LjUwMTUyMjkgTDQ1LjMwNCwzOS42NzUxMjUzIEM0NS4zNjksMzkuNjYyMTIwMyA0NS40MzEsMzkuNjU2MTE4IDQ1LjQ5NiwzOS42NTYxMTggTDQ1LjY4NywzOS42NTYxMTggQzQ2Ljk1MSwzOS42NTYxMTggNDcuOTUyLDM5Ljk5NzI0ODkgNDguNjkyLDQwLjY3OTUxMDkgTTM3LjU3NCw0MC4zNDUzODI2IEMzOC4zNTEsNDEuMDcyNjYxOCAzOC43NCw0Mi4wNzQwNDYzIDM4Ljc0LDQzLjM0OTUzNiBDMzguNzQsNDQuNjAxMDE2NSAzOC4yODgsNDUuNjEyNDA0OCAzNy4zODEsNDYuMzg0NzAxMyBDMzYuNDc1LDQ3LjE1Njk5NzggMzUuMjgzLDQ3LjU0MzE0NiAzMy44MDMsNDcuNTQzMTQ2IEMzMi41MDMsNDcuNTQzMTQ2IDMxLjI4NCw0Ny4yODcwNDc3IDMwLjE0OCw0Ni43NzY4NTE4IEwzMC4xNDgsNDUuMjQ1MjYzOCBDMzEuNTY0LDQ1LjcwNTQ0MDUgMzIuNzc2LDQ1LjkzNDUyODQgMzMuNzg0LDQ1LjkzNDUyODQgQzM0Ljc1NCw0NS45MzQ1Mjg0IDM1LjQ5Nyw0NS43MTU0NDQzIDM2LjAxMyw0NS4yNzQyNzQ5IEMzNi41Myw0NC44MzQxMDYgMzYuNzg5LDQ0LjE5OTg2MjQgMzYuNzg5LDQzLjM2OTU0MzcgQzM2Ljc4OSw0Mi40NjMxOTU3IDM2LjU0Niw0MS44MDU5NDM0IDM2LjA2MSw0MS4zOTc3ODY3IEMzNS41NzYsNDAuOTg5NjI5OSAzNC43ODUsNDAuNzg0NTUxMiAzMy42ODgsNDAuNzg0NTUxMiBDMzIuODk3LDQwLjc4NDU1MTIgMzEuOTA5LDQwLjg0OTU3NjIgMzAuNzIyLDQwLjk3NjYyNSBMMzAuNzIyLDM5LjcxMzEzOTkgTDMxLjA4NiwzMy45ODg5NDIyIEwzOC4wNzEsMzMuOTg4OTQyMiBMMzguMDcxLDM1LjU1ODU0NDggTDMyLjY5MywzNS41NTg1NDQ4IEwzMi40NDQsMzkuNDQ1MDM2OSBDMzMuMTQ2LDM5LjMxNzk4ODIgMzMuNzc3LDM5LjI1Mzk2MzYgMzQuMzM4LDM5LjI1Mzk2MzYgQzM1LjcxNiwzOS4yNTM5NjM2IDM2Ljc5NSwzOS42MTcxMDMgMzcuNTc0LDQwLjM0NTM4MjYgTTUxLjk1Nyw1NC4zNzc3NyBDNDcuMTAzLDU1LjI1MDEwNSA0Mi44NTIsNTcuMjI2ODYzOSA0MCw1OC44Mzc0ODIyIEMzNy4xNDcsNTcuMjI2ODYzOSAzMi44OTYsNTUuMjUwMTA1IDI4LjA0Myw1NC4zNzc3NyBDMjYuNjc3LDU0LjEzMjY3NTkgMTkuODY5LDUyLjcxMTEzMDIgMTkuODY5LDQ4Ljc3NTYxOTIgQzE5Ljg2OSw0Ni45NTE5MTkgMjAuNTIyLDQ1Ljc0MjQ1NDcgMjEuNzc2LDQzLjU4MjYyNTUgQzIzLjI3NCw0MC45OTk2MzM4IDI1LjEzOCwzNy43ODQzOTk0IDI1LjEzOCwzMy4xNTU2MjIyIEMyNS4xMzgsMjkuODQ3MzUyMSAyNC4yNzEsMjYuNjc1MTM0MiAyMi41NTksMjMuNzE0OTk3NyBDMjIuNzYsMjMuNDY2OTAyNSAyMi45NjUsMjMuMjE1ODA2MSAyMy4xNzEsMjIuOTYyNzA4OSBDMjUuNzA3LDI0LjIzMDE5NTUgMjguMzQ3LDI0Ljg3MjQ0MjEgMzEuMDMxLDI0Ljg3MjQ0MjEgQzM0LjMxMSwyNC44NzI0NDIxIDM3LjMyNSwyNC4wMTExMTE0IDQwLDIyLjMxMTQ1ODkgQzQyLjY3NCwyNC4wMTExMTE0IDQ1LjY4OCwyNC44NzI0NDIxIDQ4Ljk2OCwyNC44NzI0NDIxIEM1MS42NTIsMjQuODcyNDQyMSA1NC4yOTMsMjQuMjMwMTk1NSA1Ni44MjksMjIuOTYyNzA4OSBDNTcuMDM0LDIzLjIxNTgwNjEgNTcuMjM5LDIzLjQ2NjkwMjUgNTcuNDQsMjMuNzE0OTk3NyBDNTUuNzI4LDI2LjY3NTEzNDIgNTQuODYxLDI5Ljg0NzM1MjEgNTQuODYxLDMzLjE1NTYyMjIgQzU0Ljg2MSwzNy43ODQzOTk0IDU2LjcyNSw0MC45OTk2MzM4IDU4LjIyNiw0My41ODY2MjcgQzU5LjQ3Nyw0NS43NDI0NTQ3IDYwLjEzLDQ2Ljk1MTkxOSA2MC4xMyw0OC43NzU2MTkyIEM2MC4xMyw1Mi43MTExMzAyIDUzLjMyMiw1NC4xMzI2NzU5IDUxLjk1Nyw1NC4zNzc3NyBNNTYuODYxLDMzLjE1NTYyMjIgQzU2Ljg2MSwyOS45OTc0MDk3IDU3Ljc1MiwyNi45NzAyNDc1IDU5LjUwNywyNC4xNTgxNjc5IEM1OS43MzUsMjMuNzk1MDI4NCA1OS43MDYsMjMuMzI3ODQ5MSA1OS40MzQsMjIuOTk1NzIxNiBDNTguOTI2LDIyLjM3MzQ4MjcgNTguMzkzLDIxLjcxODIzMTEgNTcuODY3LDIxLjA2Njk4MTEgQzU3LjU2MiwyMC42ODk4MzYzIDU3LjAzMiwyMC41ODU3OTYzIDU2LjYwNiwyMC44MTk4ODYyIEM1NC4xNDMsMjIuMTgxNDA4OSA1MS41NzQsMjIuODcxNjczOSA0OC45NjgsMjIuODcxNjczOSBDNDUuODI0LDIyLjg3MTY3MzkgNDMuMDc3LDIyLjAyNjM0OTQgNDAuNTY5LDIwLjI4ODY4MjMgQzQwLjIyNywyMC4wNTE1OTEyIDM5Ljc3MiwyMC4wNTE1OTEyIDM5LjQzLDIwLjI4ODY4MjMgQzM2LjkyMiwyMi4wMjYzNDk0IDM0LjE3NSwyMi44NzE2NzM5IDMxLjAzMSwyMi44NzE2NzM5IEMyOC40MjUsMjIuODcxNjczOSAyNS44NTYsMjIuMTgxNDA4OSAyMy4zOTMsMjAuODE5ODg2MiBDMjIuOTY4LDIwLjU4NTc5NjMgMjIuNDM3LDIwLjY4OTgzNjMgMjIuMTMyLDIxLjA2Njk4MTEgQzIxLjYwNiwyMS43MTgyMzExIDIxLjA3MywyMi4zNzM0ODI3IDIwLjU2NSwyMi45OTU3MjE2IEMyMC4yOTQsMjMuMzI3ODQ5MSAyMC4yNjQsMjMuNzk1MDI4NCAyMC40OTIsMjQuMTU4MTY3OSBDMjIuMjQ4LDI2Ljk3MDI0NzUgMjMuMTM4LDI5Ljk5NzQwOTcgMjMuMTM4LDMzLjE1NTYyMjIgQzIzLjEzOCwzNy4yNDYxOTI3IDIxLjQyMyw0MC4yMDIzMjc3IDIwLjA0NSw0Mi41ODEyNDEgQzE4LjY5NSw0NC45MDQxMzI4IDE3Ljg2OSw0Ni40NDY3MjUxIDE3Ljg2OSw0OC43NzU2MTkyIEMxNy44NjksNTQuMTY0Njg4MiAyNS4zODUsNTUuOTM0MzY3NyAyNy42ODksNTYuMzQ3NTI2MyBDMzIuNTQ5LDU3LjIyMDg2MTYgMzYuNzkzLDU5LjI4MDY1MjQgMzkuNDk3LDYwLjg1NDI1NjUgQzM5LjY1Miw2MC45NDUyOTE1IDM5LjgyNiw2MC45OTAzMDg4IDQwLDYwLjk5MDMwODggQzQwLjE3Myw2MC45OTAzMDg4IDQwLjM0Nyw2MC45NDUyOTE1IDQwLjUwMyw2MC44NTQyNTY1IEM0My4yMDcsNTkuMjgwNjUyNCA0Ny40NSw1Ny4yMjA4NjE2IDUyLjMxLDU2LjM0NzUyNjMgQzU0LjYxNCw1NS45MzQzNjc3IDYyLjEzLDU0LjE2NDY4ODIgNjIuMTMsNDguNzc1NjE5MiBDNjIuMTMsNDYuNDQ2NzI1MSA2MS4zMDQsNDQuOTA0MTMyOCA1OS45NTQsNDIuNTc4MjM5OSBDNTguNTc2LDQwLjIwMjMyNzcgNTYuODYxLDM3LjI0NjE5MjcgNTYuODYxLDMzLjE1NTYyMjIgTTUyLjk5NCw2MC4xNTY5ODg4IEM0Ni44NjMsNjEuMjU5NDEyMSA0MS43MjMsNjQuNTU2Njc4IDQwLDY1Ljc2NDE0MTYgQzM4LjI3Niw2NC41NTY2NzggMzMuMTM2LDYxLjI1OTQxMjEgMjcuMDA1LDYwLjE1Njk4ODggQzE0LjkzNyw1Ny45ODkxNTY2IDE0LDUwLjg5NzQzMzggMTQsNDguNzc1NjE5MiBDMTQsNDUuMjg1Mjc5MiAxNS4zNzEsNDIuOTIzMzcyNCAxNi42OTcsNDAuNjM3NDk0OCBDMTcuOTYxLDM4LjQ1OTY1ODYgMTkuMjY4LDM2LjIwNjc5MzcgMTkuMjY4LDMzLjE1NTYyMjIgQzE5LjI2OCwyOC4zMzU3NzE4IDE2LjQ4NSwyNC45MzE0NjQ4IDE1LjExMiwyMy41NDU5MzI4IEMxNi41NTYsMjEuNzg5MjU4NCAyMC4yMDQsMTcuMzQxNTUwOCAyMi4wMDMsMTUuMDIzNjYwOSBDMjQuNzI5LDE3LjU5NjY0ODcgMjcuODk4LDE5LjAwMDE4NzYgMzEuMDMxLDE5LjAwMDE4NzYgQzM0LjUwOSwxOS4wMDAxODc2IDM3LjM4NSwxNy41ODQ2NDQxIDQwLDE0LjU2NDQ4NDYgQzQyLjYxNCwxNy41ODQ2NDQxIDQ1LjQ5LDE5LjAwMDE4NzYgNDguOTY4LDE5LjAwMDE4NzYgQzUyLjEwMSwxOS4wMDAxODc2IDU1LjI3LDE3LjU5NjY0ODcgNTcuOTk3LDE1LjAyMzY2MDkgQzU5Ljc5NiwxNy4zNDE1NTA4IDYzLjQ0MywyMS43ODkyNTg0IDY0Ljg4NywyMy41NDU5MzI4IEM2My41MTQsMjQuOTMxNDY0OCA2MC43MzEsMjguMzM1NzcxOCA2MC43MzEsMzMuMTU1NjIyMiBDNjAuNzMxLDM2LjIwNjc5MzcgNjIuMDM5LDM4LjQ1OTY1ODYgNjMuMzAyLDQwLjYzNzQ5NDggQzY0LjYyOSw0Mi45MjMzNzI0IDY2LDQ1LjI4NTI3OTIgNjYsNDguNzc1NjE5MiBDNjYsNTAuODk3NDMzOCA2NS4wNjIsNTcuOTg5MTU2NiA1Mi45OTQsNjAuMTU2OTg4OCBNNjUuMDMyLDM5LjYzNDEwOTUgQzYzLjc5NywzNy41MDUyOTIyIDYyLjczMSwzNS42Njc1ODY3IDYyLjczMSwzMy4xNTU2MjIyIEM2Mi43MzEsMjcuODY3NTkyIDY2Ljg0NywyNC40NDcyNzg5IDY2Ljg4NywyNC40MTUyNjY2IEM2Ny4wOTQsMjQuMjQ3MjAyMSA2Ny4yMjYsMjQuMDAzMTA4MyA2Ny4yNTQsMjMuNzM3MDA2MiBDNjcuMjgsMjMuNDcwOTA0IDY3LjIsMjMuMjA1ODAyMiA2Ny4wMywyMi45OTk3MjMxIEM2Ni45NjMsMjIuOTE5NjkyNCA2MC40MDgsMTQuOTcyNjQxMyA1OC45MDYsMTIuOTEzODUwOSBDNTguNzMsMTIuNjcyNzU4MyA1OC40NTcsMTIuNTIyNzAwNyA1OC4xNTksMTIuNTA0NjkzOCBDNTcuODYsMTIuNDgyNjg1MyA1Ny41NzIsMTIuNjAxNzMxIDU3LjM2OCwxMi44MTk4MTQ4IEM1NC44NDgsMTUuNTE0ODQ5NSA1MS44NjYsMTYuOTk5NDE5NCA0OC45NjgsMTYuOTk5NDE5NCBDNDUuNzY0LDE2Ljk5OTQxOTQgNDMuMjQ0LDE1LjU3MTg3MTMgNDAuNzk0LDEyLjM3MDY0MjMgQzQwLjQxNSwxMS44NzY0NTI2IDM5LjU4NSwxMS44NzY0NTI2IDM5LjIwNiwxMi4zNzA2NDIzIEMzNi43NTUsMTUuNTcxODcxMyAzNC4yMzUsMTYuOTk5NDE5NCAzMS4wMzEsMTYuOTk5NDE5NCBDMjguMTMzLDE2Ljk5OTQxOTQgMjUuMTUxLDE1LjUxNDg0OTUgMjIuNjMxLDEyLjgxOTgxNDggQzIyLjQyNywxMi42MDE3MzEgMjIuMTM3LDEyLjQ3NzY4MzQgMjEuODQsMTIuNTA0NjkzOCBDMjEuNTQzLDEyLjUyMjcwMDcgMjEuMjY5LDEyLjY3Mjc1ODMgMjEuMDkzLDEyLjkxMzg1MDkgQzE5LjU5MSwxNC45NzI2NDEzIDEzLjAzNiwyMi45MTk2OTI0IDEyLjk2OSwyMi45OTk3MjMxIEMxMi44LDIzLjIwNTgwMjIgMTIuNzIsMjMuNDcwOTA0IDEyLjc0NywyMy43MzYwMDU4IEMxMi43NzMsMjQuMDAxMTA3NiAxMi45MDQsMjQuMjQ1MjAxMyAxMy4xMSwyNC40MTMyNjU4IEMxMy4xNTIsMjQuNDQ3Mjc4OSAxNy4yNjgsMjcuODY3NTkyIDE3LjI2OCwzMy4xNTU2MjIyIEMxNy4yNjgsMzUuNjY3NTg2NyAxNi4yMDIsMzcuNTA1MjkyMiAxNC45NjcsMzkuNjM0MTA5NSBDMTMuNTc2LDQyLjAzMTAyOTggMTIsNDQuNzQ3MDcyNSAxMiw0OC43NzU2MTkyIEMxMiw1NS40ODcxOTYgMTcuNDc3LDYwLjQ3ODExMjEgMjYuNjUyLDYyLjEyNjc0NTEgQzMzLjU1OSw2My4zNjgyMjE3IDM5LjMzNCw2Ny43NDg5MDM2IDM5LjM5MSw2Ny43OTM5MjA5IEMzOS41Nyw2Ny45MzA5NzM1IDM5Ljc4NSw2OCA0MCw2OCBDNDAuMjE0LDY4IDQwLjQyOSw2Ny45MzA5NzM1IDQwLjYwOSw2Ny43OTI5MjA1IEM0MC42NjcsNjcuNzQ4OTAzNiA0Ni40MjIsNjMuMzcxMjIyOSA1My4zNDcsNjIuMTI2NzQ1MSBDNjIuNTIyLDYwLjQ3ODExMjEgNjgsNTUuNDg3MTk2IDY4LDQ4Ljc3NTYxOTIgQzY4LDQ0Ljc0NzA3MjUgNjYuNDIzLDQyLjAzMTAyOTggNjUuMDMyLDM5LjYzNDEwOTUiIGlkPSJBbWF6b24tUm91dGUtNTMtSWNvbl82NF9TcXVpZCIgZmlsbD0iI0ZGRkZGRiI+PC9wYXRoPgogICAgPC9nPgo8L3N2Zz4=;" parent="1" vertex="1">
          <mxGeometry x="298.76" y="229.84" width="59.99" height="59.99" as="geometry" />
        </mxCell>
        <mxCell id="22qIlZ9vfrOEo6Zabjm9-68" value="&lt;font style=&quot;font-size: 14px;&quot;&gt;ELASTIC BEANSTALK&lt;/font&gt;" style="text;strokeColor=none;align=center;fillColor=none;html=1;verticalAlign=middle;whiteSpace=wrap;rounded=0;fontStyle=1;fontSize=13;" parent="1" vertex="1">
          <mxGeometry x="607.5" y="106" width="285" height="30" as="geometry" />
        </mxCell>
        <mxCell id="22qIlZ9vfrOEo6Zabjm9-69" value="Application LB" style="text;strokeColor=none;align=center;fillColor=none;html=1;verticalAlign=middle;whiteSpace=wrap;rounded=0;fontStyle=1;fontSize=14;" parent="1" vertex="1">
          <mxGeometry x="524.72" y="280" width="190" height="30" as="geometry" />
        </mxCell>
        <mxCell id="LkJPUWECZAOm3Dws54fR-63" value="" style="image;aspect=fixed;html=1;points=[];align=center;fontSize=12;image=img/lib/azure2/networking/DNS_Zones.svg;" parent="1" vertex="1">
          <mxGeometry x="320" y="275" width="40" height="40" as="geometry" />
        </mxCell>
        <mxCell id="22qIlZ9vfrOEo6Zabjm9-72" value="" style="sketch=0;points=[[0,0,0],[0.25,0,0],[0.5,0,0],[0.75,0,0],[1,0,0],[0,1,0],[0.25,1,0],[0.5,1,0],[0.75,1,0],[1,1,0],[0,0.25,0],[0,0.5,0],[0,0.75,0],[1,0.25,0],[1,0.5,0],[1,0.75,0]];outlineConnect=0;fontColor=#232F3E;fillColor=#E7157B;strokeColor=#ffffff;dashed=0;verticalLabelPosition=bottom;verticalAlign=top;align=center;html=1;fontSize=12;fontStyle=0;aspect=fixed;shape=mxgraph.aws4.resourceIcon;resIcon=mxgraph.aws4.mq;" parent="1" vertex="1">
          <mxGeometry x="826.55" y="495" width="86" height="86" as="geometry" />
        </mxCell>
        <mxCell id="22qIlZ9vfrOEo6Zabjm9-73" value="" style="outlineConnect=0;dashed=0;verticalLabelPosition=bottom;verticalAlign=top;align=center;html=1;shape=mxgraph.aws3.elasticache;fillColor=#2E73B8;gradientColor=none;" parent="1" vertex="1">
          <mxGeometry x="835.8" y="673" width="67.5" height="81" as="geometry" />
        </mxCell>
        <mxCell id="22qIlZ9vfrOEo6Zabjm9-74" value="Elasticache" style="text;strokeColor=none;align=center;fillColor=none;html=1;verticalAlign=middle;whiteSpace=wrap;rounded=0;fontStyle=1;fontSize=14;" parent="1" vertex="1">
          <mxGeometry x="812.5" y="764" width="120" height="30" as="geometry" />
        </mxCell>
        <mxCell id="22qIlZ9vfrOEo6Zabjm9-75" value="" style="outlineConnect=0;dashed=0;verticalLabelPosition=bottom;verticalAlign=top;align=center;html=1;shape=mxgraph.aws3.memcached;fillColor=#2E73B8;gradientColor=none;" parent="1" vertex="1">
          <mxGeometry x="800.1999999999999" y="719" width="35.6" height="37" as="geometry" />
        </mxCell>
        <mxCell id="22qIlZ9vfrOEo6Zabjm9-76" value="Memcached" style="text;strokeColor=none;align=center;fillColor=none;html=1;verticalAlign=middle;whiteSpace=wrap;rounded=0;fontStyle=1;fontSize=9;" parent="1" vertex="1">
          <mxGeometry x="758" y="746" width="120" height="30" as="geometry" />
        </mxCell>
        <mxCell id="22qIlZ9vfrOEo6Zabjm9-82" value="" style="outlineConnect=0;dashed=0;verticalLabelPosition=bottom;verticalAlign=top;align=center;html=1;shape=mxgraph.aws3.rds;fillColor=#2E73B8;gradientColor=none;" parent="1" vertex="1">
          <mxGeometry x="554.2" y="675" width="72" height="81" as="geometry" />
        </mxCell>
        <mxCell id="22qIlZ9vfrOEo6Zabjm9-83" value="" style="image;sketch=0;aspect=fixed;html=1;points=[];align=center;fontSize=12;image=img/lib/mscae/Azure_Database_for_MySQL_servers.svg;" parent="1" vertex="1">
          <mxGeometry x="535" y="719" width="30.4" height="40" as="geometry" />
        </mxCell>
        <mxCell id="22qIlZ9vfrOEo6Zabjm9-87" value="MySQL" style="text;strokeColor=none;align=center;fillColor=none;html=1;verticalAlign=middle;whiteSpace=wrap;rounded=0;fontStyle=1;fontSize=9;" parent="1" vertex="1">
          <mxGeometry x="490.52" y="748" width="120" height="30" as="geometry" />
        </mxCell>
        <mxCell id="22qIlZ9vfrOEo6Zabjm9-88" value="RDS" style="text;strokeColor=none;align=center;fillColor=none;html=1;verticalAlign=middle;whiteSpace=wrap;rounded=0;fontStyle=1;fontSize=14;" parent="1" vertex="1">
          <mxGeometry x="530.1999999999999" y="764" width="120" height="30" as="geometry" />
        </mxCell>
        <mxCell id="22qIlZ9vfrOEo6Zabjm9-91" value="" style="endArrow=classic;startArrow=classic;html=1;rounded=0;entryX=-0.034;entryY=0.505;entryDx=0;entryDy=0;entryPerimeter=0;strokeWidth=2;" parent="1" edge="1">
          <mxGeometry width="50" height="50" relative="1" as="geometry">
            <mxPoint x="692" y="714" as="sourcePoint" />
            <mxPoint x="775.9106000000002" y="714.0549999999998" as="targetPoint" />
            <Array as="points">
              <mxPoint x="740.1" y="714" />
            </Array>
          </mxGeometry>
        </mxCell>
        <mxCell id="22qIlZ9vfrOEo6Zabjm9-92" style="edgeStyle=orthogonalEdgeStyle;rounded=0;orthogonalLoop=1;jettySize=auto;html=1;exitX=0.5;exitY=1;exitDx=0;exitDy=0;" parent="1" source="LkJPUWECZAOm3Dws54fR-89" target="LkJPUWECZAOm3Dws54fR-89" edge="1">
          <mxGeometry relative="1" as="geometry" />
        </mxCell>
        <mxCell id="22qIlZ9vfrOEo6Zabjm9-93" value="" style="outlineConnect=0;dashed=0;verticalLabelPosition=bottom;verticalAlign=top;align=center;html=1;shape=mxgraph.aws3.cloudwatch;fillColor=#759C3E;gradientColor=none;" parent="1" vertex="1">
          <mxGeometry x="422.71999999999997" y="84.67" width="72.36" height="83" as="geometry" />
        </mxCell>
        <mxCell id="22qIlZ9vfrOEo6Zabjm9-94" value="Amazon CloudWatch" style="text;strokeColor=none;align=center;fillColor=none;html=1;verticalAlign=middle;whiteSpace=wrap;rounded=0;fontStyle=1;fontSize=14;" parent="1" vertex="1">
          <mxGeometry x="380" y="57" width="137" height="30" as="geometry" />
        </mxCell>
        <mxCell id="22qIlZ9vfrOEo6Zabjm9-95" value="" style="endArrow=classic;html=1;rounded=1;curved=0;exitX=1;exitY=0.78;exitDx=0;exitDy=0;exitPerimeter=0;strokeWidth=2;" parent="1" source="22qIlZ9vfrOEo6Zabjm9-93" edge="1">
          <mxGeometry width="50" height="50" relative="1" as="geometry">
            <mxPoint x="510" y="149" as="sourcePoint" />
            <mxPoint x="725.66" y="214" as="targetPoint" />
            <Array as="points">
              <mxPoint x="673" y="149" />
              <mxPoint x="695" y="214" />
            </Array>
          </mxGeometry>
        </mxCell>
      </root>
    </mxGraphModel>
  </diagram>
</mxfile>
